<?xml version="1.0" encoding="UTF-8"?>
<svg id="Layer_1" data-name="Layer 1" xmlns="http://www.w3.org/2000/svg" viewBox="0 0 100 100">
  <defs>
    <style>
      .cls-1 {
        fill: #3747cc;
      }
    </style>
  </defs>
  <g>
    <path class="cls-1" d="M29.34,65.63l4.83,14.37h-14.33l4.82-14.29c.36-.92,.75-2,1.15-3.24,.41-1.25,.81-2.61,1.19-4.07,.41,1.44,.82,2.78,1.24,4.01,.42,1.24,.79,2.31,1.1,3.22Z"/>
    <path class="cls-1" d="M27.03,61.94c.09,.27,.18,.53,.26,.79,.26,.77,.5,1.47,.72,2.11l.38,1.11,4.39,13.05h-11.55l4.36-12.93c.4-1.03,.8-2.14,1.17-3.29,.09-.27,.18-.56,.27-.84m-.03-3.54c-.38,1.46-.78,2.82-1.19,4.07-.4,1.24-.79,2.32-1.15,3.24l-4.82,14.29h14.33l-4.83-14.37c-.31-.91-.68-1.98-1.1-3.22-.42-1.23-.83-2.57-1.24-4.01h0Z"/>
  </g>
  <g>
    <path class="cls-1" d="M41.77,99.25c.7,.5,1.59,.75,2.66,.75H10.14c-.1,0-.2,0-.3-.01,.94-.03,1.73-.31,2.4-.82,.71-.55,1.18-1.17,1.43-1.86l3.16-9.32h20.33l3.16,9.32c.27,.79,.75,1.43,1.45,1.93Z"/>
    <path class="cls-1" d="M36.47,89l2.94,8.66c.16,.49,.4,.93,.7,1.34H13.85c.33-.41,.57-.86,.75-1.34l2.94-8.66h18.47m1.16-1H16.83l-3.16,9.32c-.24,.68-.71,1.31-1.43,1.86-.66,.51-1.46,.79-2.4,.82,.09,.01,.19,.01,.3,.01H44.43c-1.07,0-1.96-.25-2.66-.75-.69-.5-1.18-1.14-1.45-1.93l-3.16-9.32h0Z"/>
  </g>
  <g>
    <path class="cls-1" d="M90,0H10C4.48,0,0,4.48,0,10V90.09c0,2.05,.62,3.96,1.7,5.54L20.13,48h12.35l20.13,52h5.4V63h11v37h21c5.52,0,10-4.48,10-10V10c0-5.52-4.48-10-10-10Zm-19.94,54.95c-.36,.78-.85,1.46-1.48,2.05-.62,.59-1.35,1.05-2.18,1.4-.82,.35-1.71,.52-2.64,.52s-1.77-.17-2.56-.52c-.79-.35-1.49-.81-2.1-1.4-.62-.59-1.1-1.27-1.44-2.05-.35-.78-.53-1.62-.53-2.51s.18-1.76,.53-2.55c.34-.79,.82-1.49,1.44-2.09,.61-.6,1.31-1.07,2.1-1.4,.79-.34,1.65-.51,2.56-.51s1.82,.17,2.64,.51c.83,.33,1.56,.8,2.18,1.4,.63,.6,1.12,1.3,1.48,2.09s.54,1.64,.54,2.55-.18,1.73-.54,2.51Z"/>
    <path class="cls-1" d="M90,1c4.96,0,9,4.04,9,9V90c0,4.95-4.05,9-9,9h-20V62h-13v37h-2.89l-19.89-51.37-.25-.63h-14.18l-.25,.65L1.59,94.08c-.38-1.02-.59-2.1-.59-3.2V10C1,5.05,5.05,1,10,1H90m-26.24,58.92c1.08,0,2.1-.2,3.03-.6,.96-.4,1.79-.94,2.48-1.59,.72-.67,1.29-1.47,1.7-2.36,.42-.91,.63-1.89,.63-2.93s-.21-2.05-.63-2.96-.99-1.72-1.69-2.39c-.71-.69-1.56-1.23-2.49-1.61-.94-.39-1.96-.59-3.02-.59s-2.04,.2-2.95,.59c-.9,.38-1.71,.92-2.41,1.6-.71,.69-1.27,1.5-1.66,2.4-.41,.92-.62,1.92-.62,2.96s.21,2.01,.61,2.91c.39,.89,.95,1.69,1.66,2.37,.68,.66,1.48,1.19,2.39,1.6,.91,.4,1.91,.6,2.97,.6M90,0H10C4.48,0,0,4.48,0,10V90.09c0,2.05,.62,3.96,1.7,5.54L20.13,48h12.35l20.13,52h5.4V63h11v37h21c5.52,0,10-4.48,10-10V10c0-5.52-4.48-10-10-10h0Zm-26.24,58.92c-.91,0-1.77-.17-2.56-.52-.79-.35-1.49-.81-2.1-1.4-.62-.59-1.1-1.27-1.44-2.05-.35-.78-.53-1.62-.53-2.51s.18-1.76,.53-2.55c.34-.79,.82-1.49,1.44-2.09,.61-.6,1.31-1.07,2.1-1.4,.79-.34,1.65-.51,2.56-.51s1.82,.17,2.64,.51c.83,.33,1.56,.8,2.18,1.4,.63,.6,1.12,1.3,1.48,2.09s.54,1.64,.54,2.55-.18,1.73-.54,2.51-.85,1.46-1.48,2.05c-.62,.59-1.35,1.05-2.18,1.4-.82,.35-1.71,.52-2.64,.52h0Z"/>
  </g>
</svg>