<svg width="92" height="92" viewBox="0 0 92 92" fill="none" xmlns="http://www.w3.org/2000/svg">
<g clip-path="url(#clip0_17_5978)">
<path d="M77.5069 15.9053C77.6694 14.0655 75.289 12.7406 74.8331 14.5309C74.4031 16.2142 72.211 18.652 71.7254 19.1174C71.0495 19.765 59.8869 28.7657 56.3906 25.8467C52.8944 22.9276 54.4027 15.3686 59.76 8.95815C59.7699 8.94626 59.7818 8.9324 59.7917 8.92052C61.7301 6.60746 60.9809 5.44696 58.0813 6.28664C54.7872 7.24117 55.0429 9.20965 52.0223 12.8218C51.0035 14.0417 50.0145 15.2993 49.3783 16.838C49.3367 16.937 49.3565 17.2598 49.3565 17.347C49.3605 17.6084 50.0363 23.7792 49.6498 27.9775C49.2693 32.1224 49.1979 35.497 48.09 38.1863C47.761 38.9844 48.1613 39.931 48.964 40.2518C55.5919 42.8818 59.209 35.9861 64.7428 29.3638C67.5513 26.0031 76.9519 22.1751 77.5069 15.9053Z" fill="#3747CC"/>
<path d="M57.7146 16.3489C57.2092 19.4184 58.5312 22.1889 60.6678 22.5395C62.8044 22.89 66.6277 22.2583 67.1331 19.1887C67.6385 16.1191 67.6444 12.2713 65.5098 11.9208C63.3752 11.5702 58.22 13.2793 57.7146 16.3489Z" fill="#3747CC"/>
<path d="M57.0306 32.0353C57.0306 32.0353 59.1117 32.2769 60.0056 31.9462L60.2058 31.8709C60.4575 31.7541 60.6775 31.56 60.8241 31.2828C61.0759 30.8075 61.0085 30.2094 60.6577 29.8034C60.289 29.3777 59.736 29.2489 59.2544 29.3955C59.3178 28.8964 59.0978 28.3756 58.6142 28.0845C58.1306 27.7934 57.5519 27.8429 57.1277 28.1716C56.878 28.3637 56.7234 28.6152 56.652 28.8806L56.6124 29.0905C56.436 30.0272 57.0286 32.0353 57.0286 32.0353H57.0306Z" fill="#FDF4E5"/>
<path d="M49.4575 1.08224C48.403 -0.434713 45.7253 0.0742397 46.5221 1.73972C47.2713 3.30619 47.1524 6.58369 47.0791 7.25107C46.976 8.18184 44.1814 22.2385 39.6267 22.2385C35.0721 22.2385 31.3796 15.4696 31.3796 7.11839C31.3796 7.10255 31.3796 7.0867 31.3796 7.06888C31.3856 4.05279 30.0636 3.64087 28.3769 6.14207C26.4603 8.98389 27.919 10.3305 27.919 15.0379C27.919 16.6261 27.9666 18.2243 28.4661 19.8145C28.4978 19.9155 28.7198 20.1531 28.7753 20.2185C28.9457 20.4185 33.4231 24.7198 35.8213 28.1914C38.1878 31.6174 40.2966 34.2533 41.1727 37.0278C41.4323 37.8516 42.346 38.323 43.1686 38.0516C49.9431 35.8277 48.296 28.2172 48.296 19.5887C48.296 15.2101 53.0568 6.25297 49.4594 1.08224H49.4575Z" fill="#3747CC"/>
<path d="M34.549 15.0082C36.1306 17.6876 38.9232 18.9689 40.7863 17.8698C42.6494 16.7707 45.1804 13.8358 43.6008 11.1583C42.0191 8.4789 39.5555 5.52024 37.6924 6.61934C35.8293 7.71844 32.9693 12.3307 34.549 15.0101V15.0082Z" fill="#3747CC"/>
<path d="M44.0865 27.4864C44.0865 27.4864 45.8385 26.3398 46.3122 25.512L46.4173 25.3258C46.5342 25.0763 46.5798 24.7852 46.5144 24.4763C46.4034 23.9515 45.9674 23.5336 45.4382 23.4485C44.8812 23.3574 44.3758 23.6128 44.1003 24.0327C43.8288 23.6089 43.3254 23.3494 42.7684 23.4346C42.2115 23.5198 41.7992 23.9297 41.6823 24.4525C41.6149 24.7595 41.6565 25.0506 41.7715 25.3021L41.8745 25.4882C42.3403 26.32 44.0825 27.4825 44.0825 27.4825H44.0865V27.4864Z" fill="#FDF4E5"/>
<path d="M79.3778 76.1756C81.225 76.1182 82.2576 73.5972 80.4242 73.3576C78.7019 73.1318 76.0163 71.2485 75.495 70.8227C74.7696 70.2286 64.4949 60.2317 66.9764 56.4136C69.4578 52.5974 77.152 53.1895 84.1603 57.7384C84.1742 57.7464 84.1881 57.7563 84.2019 57.7642C86.731 59.4118 87.7953 58.5286 86.616 55.7521C85.2742 52.5994 83.3497 53.0866 79.3996 50.522C78.0657 49.6566 76.6981 48.8268 75.0927 48.3773C74.9896 48.3476 74.6705 48.405 74.5853 48.4169C74.3256 48.4525 68.2766 49.8586 64.0569 49.9774C59.8927 50.0942 56.5312 50.4269 53.7267 49.6487C52.8942 49.417 52.0003 49.9279 51.7803 50.7636C49.9569 57.6513 57.2408 60.4179 64.483 65.1173C68.1576 67.5036 73.0829 76.3717 79.3817 76.1736L79.3778 76.1756Z" fill="#3747CC"/>
<path d="M76.5748 56.5938C73.4651 56.4591 70.8687 58.1028 70.7755 60.2614C70.6823 62.422 71.7665 66.1411 74.8763 66.2758C77.986 66.4104 81.8113 65.9569 81.9044 63.7983C81.9976 61.6378 79.6846 56.7284 76.5748 56.5958V56.5938Z" fill="#3747CC"/>
<path d="M60.9053 57.7879C60.9053 57.7879 60.9132 59.8812 61.3492 60.7288L61.4483 60.9169C61.593 61.1526 61.813 61.3486 62.1083 61.4615C62.6098 61.6536 63.1965 61.517 63.5592 61.1189C63.9397 60.701 63.9992 60.1386 63.797 59.6792C64.3004 59.6812 64.792 59.4019 65.0239 58.887C65.2558 58.3721 65.1368 57.8058 64.7603 57.4216C64.5403 57.1978 64.2727 57.073 63.9992 57.0334L63.7871 57.0176C62.8338 56.9562 60.9092 57.782 60.9092 57.782L60.9053 57.7879Z" fill="#FDF4E5"/>
<path d="M90.7587 46.5791C92.1402 45.3513 91.3157 42.755 89.7558 43.7452C88.2892 44.676 85.0189 44.9493 84.345 44.9552C83.4075 44.9651 69.1073 43.87 68.5643 39.3508C68.0212 34.8316 74.3061 30.3599 82.6048 29.3638C82.6206 29.3638 82.6365 29.3598 82.6524 29.3579C85.6511 29.0034 85.9028 27.6429 83.2152 26.2685C80.163 24.706 78.9975 26.314 74.32 26.8765C72.7423 27.0666 71.1587 27.3042 69.6385 27.9894C69.5414 28.033 69.3313 28.2825 69.2738 28.3459C69.0955 28.54 65.3554 33.4948 62.1921 36.2871C59.0705 39.0438 56.704 41.4519 54.0521 42.6501C53.2652 43.0065 52.9065 43.969 53.2731 44.7532C56.2917 51.2072 63.6588 48.6664 72.231 47.6366C76.5815 47.1138 86.0515 50.7676 90.7587 46.5811V46.5791Z" fill="#3747CC"/>
<path d="M75.1406 33.4532C72.667 35.3425 71.7276 38.2655 73.0416 39.9825C74.3557 41.6995 77.5745 43.86 80.048 41.9728C82.5216 40.0835 85.1675 37.2872 83.8535 35.5683C82.5394 33.8493 77.6141 31.564 75.1406 33.4532Z" fill="#3747CC"/>
<path d="M63.8809 44.4047C63.8809 44.4047 65.2287 46.0068 66.1087 46.3771L66.3049 46.4583C66.5665 46.5454 66.8618 46.5553 67.1591 46.4543C67.6685 46.2801 68.0292 45.7988 68.053 45.2641C68.0768 44.7017 67.7616 44.2304 67.3117 44.0066C67.7002 43.6878 67.8984 43.157 67.7458 42.6124C67.5932 42.0678 67.1393 41.7094 66.6042 41.6559C66.291 41.6242 66.0056 41.7015 65.7697 41.846L65.5973 41.9708C64.8263 42.5332 63.8789 44.4007 63.8789 44.4007V44.4047H63.8809Z" fill="#FDF4E5"/>
<path d="M11.1414 75.128C10.7986 76.942 13.0382 78.4946 13.6685 76.7578C14.2611 75.126 16.6831 72.912 17.2103 72.4961C17.9476 71.9158 29.9368 64.0518 33.1298 67.2976C36.3248 70.5435 34.0831 77.9203 28.1232 83.7762C28.1113 83.7881 28.0995 83.8 28.0876 83.8099C25.9311 85.921 26.5634 87.1508 29.5324 86.5983C32.9038 85.9705 32.8424 83.9862 36.2019 80.6869C37.3356 79.5719 38.4415 78.4174 39.2264 76.9479C39.276 76.8529 39.2898 76.5301 39.2978 76.443C39.3196 76.1815 39.2502 69.9751 40.047 65.8342C40.8318 61.7467 41.2342 58.3959 42.5998 55.8254C43.0061 55.063 42.7009 54.0807 41.9318 53.6846C35.5934 50.419 31.3182 56.9285 25.1621 62.9785C22.0365 66.05 12.3069 68.9394 11.1414 75.126V75.128Z" fill="#3747CC"/>
<path d="M30.8841 76.6212C31.6868 73.617 30.6423 70.7276 28.5513 70.1711C26.4602 69.6147 22.5914 69.8681 21.7887 72.8743C20.986 75.8785 20.6014 79.7086 22.6925 80.267C24.7835 80.8235 30.0794 79.6274 30.8821 76.6232L30.8841 76.6212Z" fill="#3747CC"/>
<path d="M33.1002 61.0773C33.1002 61.0773 31.0528 60.6337 30.1292 60.8753L29.923 60.9308C29.6614 61.0219 29.4236 61.1942 29.2492 61.4576C28.9519 61.9051 28.9598 62.5071 29.271 62.9468C29.596 63.4082 30.1331 63.5884 30.6266 63.4894C30.5157 63.9786 30.6821 64.5212 31.134 64.8578C31.5859 65.1945 32.1667 65.2024 32.6225 64.9172C32.8901 64.7509 33.0685 64.5152 33.1656 64.2578L33.227 64.0538C33.4926 63.1389 33.1022 61.0813 33.1022 61.0813H33.1002V61.0773Z" fill="#FDF4E5"/>
<path d="M47.1982 91.1491C48.5083 92.4502 51.0512 91.4699 49.9671 89.9748C48.9483 88.5687 48.4746 85.3229 48.427 84.6535C48.3616 83.7188 48.5797 69.3909 53.061 68.571C57.5423 67.7511 62.3922 73.7477 63.8966 81.9622C63.8986 81.9781 63.9025 81.9939 63.9045 82.0098C64.4416 84.9783 65.8152 85.1466 67.0262 82.3821C68.3997 79.2432 66.7229 78.1797 65.8746 73.5477C65.5892 71.9852 65.2542 70.4207 64.4773 68.9473C64.4278 68.8522 64.1661 68.6601 64.0987 68.6047C63.8946 68.4403 58.7156 65.0123 55.7327 62.0279C52.7894 59.0831 50.2386 56.871 48.877 54.2985C48.4726 53.5341 47.4896 53.2371 46.7285 53.649C40.4653 57.0552 43.4562 64.2459 45.0081 72.7318C45.7969 77.039 42.7268 86.7072 47.1962 91.1452L47.1982 91.1491Z" fill="#3747CC"/>
<path d="M59.3557 74.7695C57.3182 72.4189 54.3393 71.6604 52.7041 73.0763C51.069 74.4923 49.1068 77.8332 51.1443 80.1839C53.1818 82.5345 56.1389 85.0021 57.7741 83.5881C59.4092 82.1721 61.3932 77.1202 59.3537 74.7695H59.3557Z" fill="#3747CC"/>
<path d="M47.7256 64.2103C47.7256 64.2103 46.2073 65.6539 45.8902 66.553L45.8209 66.755C45.7495 67.0224 45.7574 67.3174 45.8783 67.6066C46.0825 68.1036 46.5859 68.4344 47.123 68.4245C47.6879 68.4146 48.1398 68.072 48.334 67.6086C48.6769 67.9749 49.22 68.1413 49.7531 67.9571C50.2863 67.7729 50.6173 67.2957 50.6391 66.759C50.651 66.4441 50.5559 66.1649 50.3973 65.9391L50.2625 65.7747C49.654 65.04 47.7315 64.2103 47.7315 64.2103H47.7275H47.7256Z" fill="#FDF4E5"/>
<path d="M17.0085 10.788C15.1969 10.4177 13.6113 12.6317 15.3396 13.2872C16.9649 13.9031 19.1411 16.3568 19.5494 16.8915C20.1182 17.6361 27.8045 29.7341 24.5084 32.877C21.2123 36.0178 13.863 33.6651 8.09542 27.6231C8.08353 27.6112 8.07362 27.5993 8.06172 27.5874C5.98062 25.4011 4.74187 26.013 5.24926 28.9875C5.82602 32.364 7.81199 32.3343 11.0625 35.7406C12.1605 36.8912 13.2982 38.014 14.7569 38.82C14.8501 38.8715 15.1751 38.8913 15.2604 38.8992C15.522 38.925 21.7336 38.9507 25.8661 39.8102C29.943 40.6578 33.2926 41.1093 35.8415 42.5134C36.5986 42.9313 37.5856 42.6401 37.9939 41.8777C41.3594 35.596 34.9119 31.2253 28.952 24.9813C25.9275 21.8127 23.1844 12.0475 17.0105 10.788H17.0085Z" fill="#3747CC"/>
<path d="M15.2107 30.4886C18.2055 31.3362 21.1111 30.3381 21.7017 28.2588C22.2924 26.1794 22.0962 22.3097 19.1014 21.4622C16.1065 20.6146 12.2793 20.171 11.6906 22.2523C11.102 24.3337 12.2179 29.643 15.2127 30.4906L15.2107 30.4886Z" fill="#3747CC"/>
<path d="M30.7315 32.9403C30.7315 32.9403 31.2072 30.9025 30.9793 29.9757L30.9278 29.7698C30.8405 29.5084 30.6721 29.2668 30.4124 29.0885C29.9685 28.7855 29.3659 28.7836 28.922 29.0885C28.4562 29.4074 28.2659 29.9401 28.3571 30.4352C27.8695 30.3164 27.3245 30.4748 26.9796 30.9223C26.6347 31.3699 26.6189 31.9482 26.8964 32.4076C27.0589 32.6769 27.2908 32.8591 27.5484 32.9601L27.7526 33.0235C28.6643 33.3027 30.7276 32.9443 30.7276 32.9443H30.7296L30.7315 32.9403Z" fill="#FDF4E5"/>
<path d="M1.45963 38.9943C-0.165615 39.8736 0.044477 42.5887 1.78864 41.9807C3.42974 41.4084 6.67626 41.8896 7.3323 42.0361C8.246 42.2421 21.9198 46.5692 21.4164 51.0943C20.913 55.6175 13.7718 58.5365 5.46525 57.6137C5.4494 57.6137 5.43354 57.6097 5.4157 57.6077C2.41495 57.2691 1.85999 58.5345 4.16308 60.4872C6.77734 62.7032 8.2797 61.4041 12.9612 61.9249C14.5408 62.1012 16.1364 62.2299 17.7715 61.9111C17.8766 61.8913 18.1362 61.6972 18.2076 61.6477C18.4236 61.4991 23.1982 57.5305 26.9165 55.5323C30.5852 53.5619 33.4392 51.7577 36.2973 51.1953C37.1456 51.029 37.7144 50.1715 37.536 49.3259C36.0713 42.353 28.3197 43.1471 19.7377 42.1926C15.3812 41.7094 6.99734 35.9921 1.45764 38.9923L1.45963 38.9943Z" fill="#3747CC"/>
<path d="M13.6648 55.3382C16.505 54.0629 18.0866 51.433 17.2006 49.4605C16.3147 47.4881 13.6747 44.6502 10.8345 45.9256C7.99424 47.2009 4.77943 49.3199 5.66539 51.2924C6.55134 53.2648 10.8245 56.6156 13.6648 55.3402V55.3382Z" fill="#3747CC"/>
<path d="M27.1304 47.2445C27.1304 47.2445 26.183 45.377 25.412 44.8146L25.2396 44.6898C25.0037 44.5453 24.7183 44.468 24.4052 44.4997C23.87 44.5532 23.4082 44.9394 23.2635 45.4562C23.1109 45.9988 23.3091 46.5296 23.6976 46.8504C23.2477 47.0742 22.9326 47.5435 22.9563 48.1079C22.9801 48.6723 23.3408 49.1258 23.8502 49.3001C24.1475 49.4011 24.4428 49.3912 24.7045 49.3041L24.9007 49.2229C25.7807 48.8506 27.1285 47.2504 27.1285 47.2504V47.2465L27.1304 47.2445Z" fill="#FDF4E5"/>
</g>
<defs>
<clipPath id="clip0_17_5978">
<rect width="91.1087" height="91.5759" fill="white" transform="translate(0.353516 0.179199)"/>
</clipPath>
</defs>
</svg>
