<?xml version="1.0" encoding="UTF-8"?>
<svg id="Layer_1" xmlns="http://www.w3.org/2000/svg" viewBox="0 0 1753 263.79">
  <path d="M122.92,211.91c6.42,1.06,16.21-26.18,25.32-41.55,11.73-7.09-6.14,20.12-10.28,34.12,8.55-6.8,24.56-31.27,27.73-29.95-1.93,4.46-2,6.13-5.59,11.63,15.87-21.05,16.14.11,35.52-26.39-.69,2.42-1.59,4.7-2.48,6.77,5.66-13.62,12.28-27.35,17.31-37.12,3.24-.24,13.93-16.65,6.35,1.09-1.59-.66-5.24,6.45-8.76,11.89l6.9-7.41c-9.66,25.54-8.55,8.44-17.8,27.21,10.14-7.81,27.59-28.27,28.7-20.76-11.17,24.88-15.04,7.54-19.59,30.05l-2.55-10.01c-13.73,39.56-3.1-3.03-18.56,39.19,6.07,7.88,16.9-11.87,22.9-3.93,8.9-13.62,9.31-20.44,18.14-34.09,25.66-23.81-19.8,63.16,6.35,30.82,10.62-16.35,26.9-47.68,25.94-30.56l-16.07,27.88c7.93,3.45,24.83-39.96,25.38-20.39-7.04,10.91-11.8,8.76-12,12.21-4.41,22.62,12.14-15.61,16.97-15.27l-11.04,24.93c11.8-3.21,31.32-20.36,44.35-24.13-4.14,7.35-9.73,15-10.83,22.78,19.73-11.42,28.01,5.15,34.49,20.81l15.24-21.11c1.1.32-2.35,9.85-5.59,13.91,1.38,8.5,6.69-13.59,13.17-21.85,3.66-1.3-1.86,12.61-6.83,18.93,17.8-17.55,44.49-37.41,43.53-13.73l-4.83,6.24c3.52,9.24,28.9-43.43,26.63-22.94l-3.1,3.72c12.07,10.43,39.04-7.99,36.9,25.27,16.35-30.8,10.07,14.87,30.56-28.25-.21,22.01-6.42,29.58.48,44.84,2.69,2.23,17.24-26.63,23.59-30.85l-9.86,22.59,16.42-23.31-8.76,27.21,6.69-5.52c-1.03-1.43.97-10.38,4.07-16.86,10.9-9.82,8.69,16.75,3.79,28.35l23.52-18.11c-4.28,9.08-8.14,12.03-12.69,17.68,18.14-22.54-8.83,23.89,7.79,3.27,1.24-5.2,6.35-13.43,8.48-17.97-2.21,13.91,6.28,14.55,14.97,9.19l-7.86,15.53c9.73,4.67,27.18-6,39.8-4.94-1.52-7.54,10.83-34.51,15.59-36.88l-8.48,24c8.55-14.63-.14-9.24,12.35-27.05,3.59,3.05-8.14,27.37-14.07,35.02l9.24-7.94c-2.62,7.17-5.52,10.83-9.66,19.91,8.48-14.71.14,24.61,14.21-.96l-2.62,7.14c12.69.98,21.87-6.88,32.7-7.43,8.55-20.65,10.76-15.82,20.49-32.31,4.9,7.06,6.97,23.76,16.9,22.54,10.48-9.9,8.76-17.42,16.49-29.5-6.9,18.82,2.97,17.6-7.1,30.88,12.28-2.44,15.66-2.95,35.46-17.47,1.45-7.81,1.03-11.26,4.34-17.63,3.66-2.95,2.69,8.23-1.11,17.26l-1.38,1.91c26.14-27.37,15.73,57,42.84,18.4l-1.38,1.91,20.41-19.81c4.83,3.56-8.69,13.99-8.48,25.88,25.31-30.77,20.69,5.68,39.66-14.68-10.21,56.15,33.18-2.31,33.39,33.88l3.65-13.17c7.38-12.69,1.31,7.7,2.69,10.83,3.04-10.22.49-11.97,4.76-19.01,31.53-14.42,48.84,21.69,73.26,34.83,9.17,3.98,25.66-67.73,29.11-35.79l-10.69,24.24c14.41-14.18,24.63-13.46,34.76-12.21,10.14,1.22,20.14,2.95,33.39-9.11-2.69,5.6-4.62,12.93-6.55,12.77-.48,17.92,15.45,1.46,19.17-13.04,2.69,1.75-2.62,13.12-2.62,20.55,1.58,10.65,16.42-22.27,14.21-4.51-.34,2.89-2.62,5.71-3.79,7.06,4.9-8.5,12.35,2.68,14.76-17.92,5.1,10.06,16.48-8.58,19.52,3.77,9.31-22.78,10.21,11.52,18.96-20.87-8.27,33.48,6.97,27.53,15.18,11.89-3.86,10.09,1.8,10.62-3.17,24.58,5.59-.32,11.93-6.37,14.69-23.63,1.52,40.38,26.77-31.7,21.73,19.86,19.86-17.55,36.97-29.31,52.7-36.74-6.55,33.42-16.49,2.87-22.42,37.99,16.48-13.38,29.39-41.87,41.45-33.4,2.69,4.67-4.49,14.47-6.62,20.12,15.93-13.33,26.21,3.64,41.25-14.31-.49,3.11-2.35,6.5-4,9.03,2.55-1.04,4.9,5.02,6.9-10.19l-2.97,4.06c-.41-22.17,16.35-45.93,18.35-57.61-10.35,43.54,10.21,11.2-4,66.19,2-2.84,5.04-10.01,6.07-20.2,1.93,3,1.86,8.97-2.14,20.5,9.8-8.1,8.9-24.34,16.63-23.87-1.03,7.38-2.97,10.19-4.9,18.85,5.87-14.28,11.66-28.59,17.39-22.22-.97,4.43-.9,10.22-2.9,10.09,11.66-1.99,23.67-37.91,34.21-23.76-7.1,31.96,3.04,10.62.69,38.36l7.59-8.15-1.31-13.49c5.8.56,12.9-19.62,16.97-10.46l-5.38,11.39,11.38-5.15-5.18-10.59c7.18-14.23,2.7-35.1,9.52-27.29-1.79,2.81,5.59.4,7.25,16.78v.08c3.59-8.81,7.24-18.05,10.9-11.15.41,8.89-3.31,30.66-3.04,36.58,4.62-23.15,14.07-6.29,19.31-30.96-1.58,5.79-2.62,20.36-2.48,23.34l3.66-18.82c2.28,6.05,2.48,8.97,1.24,20.58,7.86,3.53-.28-35.23,8.27-19.97-.83,1.51-.62,4.35-2.41,7.17,9.1,8.02,19.11-11.76,27.38-2.42,1.31,27.96-8,6.77-6.13,30.35,13.24-4.91,27.79-33.19,39.8-26.65l-2.21-3.08c2.62-39.42,8.69,19.49,15.32.9-1.59,2.89-2.35,21.88-1.87,17.47,8.42,6.35,17.6-9.69,30.21-22.09l-1.51,10.12c5.04,9.03,13.17,5.2,18.62,9.82,1.45-10.12,4.55-8.47,2.41-23.2,8.69,28.83,16.7,21.11,24.01,12.16,7.38-8.89,14.21-19.12,22.7,4.81-1.73.13-3.79,8.92-2.42,8.92l12.15-9.48c-1.93-17.15-2.21-10.38-5.52-23.71,1.03-10.19,4.07-18.13,7.1-18.16-4.83,11.44,1.59,27.58,4.62,37.14-.69-5.26-.21-11.07-.76-16.41,8.34,30.48-1.03-34.57,8.97-14.1l.14,9.03c2.97-4.65,5.18-16.59,8.83-14.07,2.9,19.86-2.82,9.32-1.86,25.65,5.04-1.19,7.04-37.75,13.04-18-1.65,5.55-4.69,5.68-6.41,11.2,6.75,23.26,6.9,17.34,10.9,21l-.41-.53,9.51,10.46-2.76-6.29c1.73-51.85,12.08-9.61,17.18-43.62-4.9,32.2.48,18.58,2.13,41.1,2.83,6.21,6.9,13.17,6.63,19.51,2.14-18.21,8.42,14.23,11.24-12.4,1.11,7.22,4.41.66,5.59,18.85,4.69-5.76-2.69-12.58-3.32-21.66,5.04-24.77,22.97,29.58,30.36-4.59,8.14-14.2,6.41-38.66,13.59-51.03,4.83,11.5,1.52,26.42,1.52,26.42,6.62,10.54,10.14,8.5,13.52.11,0,6.32,1.93,11.65,4.69,19.73,3.52-1.96-1.79-26.39,4.97-15.85.48,8.1,1.51,21.03,1.03,29.15,3.44-6.77,5.66-20.39,9.1-27.03,3.45,12.58.56,19.19.28,27.48,4.34-5.81,11.73-11.76,9.66-31.75l-4.62-7.06c1.73-.98,4.07,17.12,3.31,20.79-1.73,15.74-7.72-6.74-9.24-14.02l2.48-4.73c-10.83-42.35-11.86,7.11-19.04,4.81l-2.35-30.93-2.55,25.78c-2.75-7.99-6.41-25.22-3.93-29.89-7.03-15.13-2.35,11.07-8.97-5.84-.83-2.63-.9-4.12-.69-5.36l-3.1,9.29c-.07-6.5-4-21.77-.62-17.39-10.56-17.63-9.52,23.47-15.93.13l.41-1.91c-9.66,10.7,2.14,22.7-2.83,49.51l-12.97-55.78,1.79,22.7c-1.24-.8-3.72-2.44-4.48-11.52-2.35,15.61,2,9.85,1.31,24.56-8.07-20.47-14.42,9.93-19.73-26.18-.07,17.26,6.83,13.22,2.2,25.27-5.93-38.84-6.21,6.74-13.17-11.04-.48-20.07,5.31-9.53-1.52-27.35.41,33.93-10.48-7.33-14-.8,2.28,27-8.21,11.36-14.56,20.44-.28-9.08-14.56-14.68-21.73-24.4v-4.51c.41,27.29-6.76,22.22-11.45,27.96-.69-16.35-.21-22.81,2.07-30.13l-4.62.19c-.62,8.76-1.79,13.38-4.69,16.54l.14-20.42c-6,1.17-11.24,24.21-19.73,10.59.14,19.04,8.49,52.99.21,65.71-.69-10.27-1.58-27.88.48-32.1-.69,1.35-2.35,8.55-4,4.17l2.82-17.31c-3.93-7.59-1.45,14.47-4.41,12.85-.41-14.68-2.48-10.46-2.41-22.12.69-1.41,2.76,6.08,3.65.29-3.38-2.63-7.58-11.31-9.17-22.46.48,8.34.55,19.75-1.79,21.66-6.21,1.06-2.55-17.65-6.28-25.19-1.25,10.19-5.38-.37-5.11,21.56-1.8-.11-2.35-10.35-3.1-16.27-3.04,9.66-14.84,2.76-11.04,26.1l.83,1.54c-.14.45-.34.48-.55.96-10.56,21.82-22-12.43-32.49-3.03l.14-7.35c-6.35,8.39-13.94,4.96-18.9,20.76-1.86,0-4-13.38-2.97-22.14-4.89,5.5-5.79,13.81-12.21,1.62,5.24-12.77-1.24-11.36,5.24-9.35-5.93-6.4-6.75-18.16-14.28,1.83,3.04-18.77-3.52-23.73-6.69-18.13l3.66,13.49c-3.45,2.71-6.21,1.01-9.04-.61l2.82-24.72c-5.38-15.11-11.58-2.36-17.52,7.83-5.86,10.19-11.38,17.89-14.35-7.33-4.55,17.26,5.93,12.24,1.52,32.44-2.83-1.7-5.11-11.44-6.83-20.76-.83-4.78-1.66-9.08-2.28-12.61-.62-3.4-1.17-5.63-1.58-5.66-6.63-13.78-10.21,36.05-17.73,26.6.28,8.81-.76,32.36-7.86,40.59-5.66-3.32-3.72-37.06.55-44.1,1.45-.72,1.86,2.07,1.52,5.07,2.14-3.19,4.96-6.93,3.52-16.51l-1.52,8.81c-2.07-9.03-10-8.15-6.75-22.59-5.11,8.36-3.25,14.44-.48,19.04-6.07-12.85-11.45-.48-18.14-9.24.69,4.88.69,15.27-.48,15.13-10.01-11.15-6.76,16.62-14.9,20.34-2.76-13.51,5.24-32.04-3.73-20.95-3.58-9.19,1.87-23.42,4.49-30.56-8.9,16.86-11.38-11.42-14.83-14.63l4.48-7.04c-2.69,4.19-4.41,4.01-6.13,3.96l-.21,17.65c-1.73-3.11-3.52-3.21-2.49-10.57-3.72,11.5-2.13,29.34-8.62,45.05-1.65-9-10.07,9.42-7.86-13.96,7.86,8.12,2.28-23.5,10.28-27.13-1.79,2.76-3.59,2.63-5.24-.53,0-2.63.96-4.83,1.73-6.16-5.52-21.05-7.52,26.36-16.35,25.65,3.03-13.14,1.58-25.04-.21-22.25,3.44.35-1.52,22.01-6.28,32.04-4.14-10.38-7.38,7.51-10.21,6.24l2.69,4.91c-3.17,13.14-5.79,11.36-10.48,15.42,1.24-10.27,4.76-6.98,4-11.52-8.14,23.07-6.28-24.16-14.9-8.68-1.38-8.97,3.79-24.74,2.35-30.85-9.73,16.88-4.34-18.27-13.87-4.35-1.03,17.76.14,13.43-8,30.53l14.07-12.08-12.07,25.51c3.59.37,9.59-10.89,11.24-7.83-6.14,14.34-5.04,9.93-5.73,24.69-.48-26.68-12.62,15.19-15.31-2.92l7.94-43.81c-4.97-19.78-19.25,22.04-28.42,10.67l2.14,7.73c-4.83,17.36-7.38,2.23-12.35,9.19,3.17-14.63,2-19.99,2.28-29.18-2,10.86-7.87-1.22-14.84,27.96l-1.03-19.41c-7.31-8.15-18.96,41.39-26.76,36.16,6.07-15.82,4.34-26.31,12.55-37.51-2.83-.24-4.83-2.97-7.1,7.17.34-9.21-12.35,19.46-11.93,5.5-2.62,6.37-6.48,21.69-9.52,20.36.28-2.97,1.65-7.22,1.65-7.22-1.65,7.22-7.38,9.64-8.14,25.91,1.38-45.96-26.21,2.39-24.69-37.09-7.52,4.67-16.35,9.08-22.42,9.93,1.45-4.35,1.86-7.27,2.55-5.73-4.48-13.89-15.59,41.76-20.9,26.26,1.45-23.79,8.14-12.58,7.52-21.64,11.18-48.11-12.62,6.16-11.38-22.14l2.21-2.76c-.28-16.49-16.14,17.79-22.9,14.07,0,0,1.52-4.25,2-7.25-11.86,24.32-24.14,31.94-33.52,38.42,7.65-18.66,6.21-9.8,10.21-28.94-4.07,2.55-7.72,30.69-15.86,35.73.76-10.38-1.38-19.57,3.86-39.96l6.49-.82c4.41-26.5-8.21.56-10.14-4.17l3.79-11.5c-10.48,3.32-19.18,32.34-28.84,29.79l-1.58,8.79c-14.28,28.46.21-16.38-11.87,4.73l7.18-29.23c-5.79,6.88-21.52,27.58-29.93,32.79,10.55-21.42,21.65-32.15,30.35-44.76-3.52-.37-12.97,1.59-19.31,15.9,2.35-2.73,6.42-9.8,6.48-5.26-11.59,22.7-21.1,33.69-28.28,32.87,19.31-56.39-14.49-15.08-5.38-59.23-19.66,20.2-22.28-10.19-38.08-7.62-9.79,44.15-4.76,1.04-19.39,46.14-4.48,2.71-5.58,1.89-4.89-1.06l-1.18-27.45c2.14-13.25,6.76-9.77,10.01-19.89-6.28-3.85,3.52-19.25,2.82-31.46-4.69,16.17-10.76,22.94-12.83,16.57l-1.31,21.08c-19.11,23.42,4.41-38.26-14.69-15.05l8.42-13.99c-8.42,8.1-19.79-1.33-38.49,34.49.96-5.26,4.21-17.63,7.86-20.73-10.9-6.16-43.52,36.8-45.25,13.96l5.17-10.94c-3.65,3.03-12.14,20.42-10.97,9.19,1.93-4.54,5.18-10.91,4.35-11.63-2.76,3.72-13.94,18.9-14.69,12.29l7.52-12.21c-7.04-15.11-31.25,29.02-45.11,35.92,12.83-32.34,7.1-43.41,4.21-48.98l2-4.57c-13.1-4.91-36.01,25.25-55.11,37.06,6-35.6-22.9-16.46-28.28-36.98-.41,6-11.04,25.14-14.9,28.22-.41-6.74-18.56,21.85-5.31-7.73l.9.64c10-29.2.14-21.85-4.69-23.02l-17.59,38.66c10.97-57.21-44.77,18.35-29.94-32.58-7.59,9.48-11.59,9.08-19.11,18.53l9.38-20.73c-6.69-5.89-10-8.79-23.38-4.57l8.97-14.68c-5.66-1.75-34.97,59.26-41.39,60.11l12.28-31.06c-11.24-.21-10-28.19-33.8-.88,2.28-4.51,6.69-13.43,9.11-14.58-4.83-1.17-10.35-22.33-28.21,20.26,12.69-27.64-10.14-3.48-21.87,8.28l10.49-20.34c-17.25,25.73-20.69,32.81-31.18,39.53-.41-2.76,6.21-16.41,5.93-11.04-.55-11.07-13.45,19.01-15.11,7.67l8.62-12.85c-5.04-1.96-7.86,5.04-18.14,20.02-7.52,7.94-8.48-5.89-.62-24.37-6.07,11.18-16.35,25.96-17.24,20.44,2.83-6.98,6.14-11.23,7.79-13.3-2.97-14.55-25.59,22.67-22.69,2.18,3.1-6.77,4.28-10.17,4.69-12.24,7.38,1.06,13.04,2.6,11.73,4.04,8.97-18.8,4.35-22.51,21.66-48.11-11.66,13.81-34.84,43.96-36.63,34.7.55-1.83,1.17-3.64,2.35-6.56l1.66-2.07c-.48-1.96-2.55-.32-5.24,2.76-.41-3.21-.55-5.6-2.28-6,6.76-15.58-3.03-8.89-5.73-9.88-9.66,20.58-12.07,16.99-16.49,34.22.21-1.51,1.79-2.42,4.21-3.13.76-.58,1.45-.85,2.35-2.04-.35.53-.69,1.14-1.1,1.78,2.28-.45,5.17-.72,8.28-.82-7.45,10.27-14.21,18.85-12.14,7.22-7.66,12.43-15.87,25.73-20.28,32.84,9.59-28.96,8.97-45.03,16.35-62.76-14.97,10.86-25.73,6.03-50.49,44.18-5.1,4.78,2.35-11.28,4.28-17.42,3.45-3.77,4.97-3.03,8.48-8.52-10.14,9.5-17.73,2.71-32.14,29.58-.83-12.64,15.93-24.53,4.48-20.79l5.31-8.15c2.97-44.39-63.53,66.61-56.56,9.85-.28,3.5-.35,5.12-2.28,9.64-11.04-26.07-58.98,19.38-62.57-20.95-2.62-8.28-11.86,8.87-22.35,21.66l9.59-22.14-19.45,24.93c-18.9,17.92,10.42-55.33-19.31-21.03l-5.86,14.97c-2.97-3.11-18.21,7.73-8.97-9.29-1.79,2.68-9.17,15.35-6.97,7.46l5.66-11.55-20.63,18.98c-4.14-8.95,24.21-45.69,13.24-48.82-6.76,4.12-29.66,32.63-31.87,40.46,1.52.72,1.03,7.54-4.62,19.09l-7.17,5.71C22.42,112.25,1.72,146.81,0,171.29l17.52-20.26-6,16.65-6.48.58c-4.41,15.77,4.62,2.2,11.73-7.04-3.79,8.81-5.93,15.03-6.14,18.37l23.18-31.94c-5.79,13.35-16.35,26.15-15.31,33.82,10.83-14.84,11.8-30.05,22.14-39.53-4.35,15.69-11.66,28.19-1.03,15.29-3.79,8.79-7.45,14.31-10.97,18.03,8.76-10.22,11.59-3.74,22.42-21.66-6,19.33,14.42-4.06-2,28.06,4.97-7.62,18.83-24.8,22.76-25.88-25.18,38.07,11.04,3.16-11.17,44.34,21.66-34.3,23.52-14.2,40.91-32.84-1.79,2.71-5.45,8.23-5.24,6.4,2.97,3.21-1.03,13.75-1.45,20.5,14.83-28.57,24.9-34.59,37.39-51.98-8.35,28.01-20,33.37-31.46,59.97,11.24-23.2,20.9-22.46,28.63-41.89-4.35,17.39-.55,8.55-10.21,32.44,18.49-35.73,6.83-5.79,21.18-27.5-2.76,18.08-15.11,33.64-3.1,23.23-2.28,11.18-14.42,23.42-14.42,23.42l.07.05ZM309.44,161.34c-.07.19-.14.32-.21.4-1.59.37-2.9.69-3.79.93.83-.24,1.93-.58,4-1.35v.03ZM322.69,161.95c-1.24-.93-3.1-1.19-5.31-1.22,2.9-7.11,6.9-14.39,8.07-13.94-2.97,4.7-1.86,9-2.76,15.13v.03ZM363.39,17.58c3.45-2.76,2.21,1.33.41,5.55-1.1.29-2.62.9-4.76,2.2-.41.69-1.03,1.75-1.45,2.5,2.07-3.9,4.07-7.57,5.79-10.25Z" style="fill: #3747cc;"/>
</svg>