<?xml version="1.0" encoding="UTF-8"?>
<svg id="Layer_1" data-name="Layer 1" xmlns="http://www.w3.org/2000/svg" viewBox="0 0 100 130">
  <defs>
    <style>
      .cls-1 {
        fill-rule: evenodd;
      }

      .cls-1, .cls-2 {
        fill: #3747cc;
      }
    </style>
  </defs>
  <path class="cls-2" d="M39.33,17.25H21.66V-.5h17.67V6.08h-5.56v4.58h5.56v6.58Zm-16.67-1h15.67v-4.58h-5.56V5.08h5.56V.5h-15.67v15.75Z"/>
  <path class="cls-2" d="M56,17.25h-17.67V-.5h17.67V17.25Zm-16.67-1h15.67V6.08h-10.61v-1h10.61V.5h-15.67V10.67h10.61v1h-10.61v4.58Z"/>
  <path class="cls-2" d="M78.22,17.25h-23.22V-.5h23.22V17.25Zm-22.22-1h21.22V6.08h-10.61v-1h10.61V.5h-21.22V10.67h10.61v1h-10.61v4.58Z"/>
  <path class="cls-1" d="M49.95,130l-38.58-10.76L0,22.33H100l-11.37,96.89-38.68,10.78Zm-27.47-63l1.06,16.75H63.67l-1.29,14.48-12.39,3.36h-.01s-12.37-3.35-12.37-3.35l-.79-8.91h-14.58l1.77,19.9,25.83,7.21,25.87-7.21,3.15-35.51,.31-3.4,2.28-25.65H20.39l1.01,11.17h45.19l-.99,11.17H22.49Z"/>
</svg>