<?xml version="1.0" encoding="UTF-8"?>
<svg id="Layer_1" data-name="Layer 1" xmlns="http://www.w3.org/2000/svg" viewBox="0 0 91.72 130.58">
  <defs>
    <style>
      .cls-1 {
        fill: #3747cc;
      }
    </style>
  </defs>
  <g id="Icons">
    <g id="Group">
      <g id="Shape">
        <path class="cls-1" d="M65.29,91.06c-14.57,0-26.43-11.86-26.43-26.43s11.86-26.43,26.43-26.43,26.43,11.86,26.43,26.43-11.86,26.43-26.43,26.43Zm0-38.86c-6.85,0-12.43,5.58-12.43,12.43s5.58,12.43,12.43,12.43,12.43-5.58,12.43-12.43-5.58-12.43-12.43-12.43Z"/>
        <path class="cls-1" d="M26.43,52.86c-7.85,0-15.25-3.46-20.29-9.49C1.11,37.34-.97,29.39,.44,21.56,2.7,9.07,14.03,0,27.38,0h18.48C49.73,0,52.86,3.13,52.86,7V45.86c0,3.87-3.13,7-7,7H26.43Zm19.43-7h0ZM27.38,14c-6.47,0-12.13,4.32-13.17,10.05-.68,3.79,.26,7.46,2.67,10.34,2.37,2.84,5.85,4.47,9.54,4.47h12.43V14h-11.48Z"/>
        <path class="cls-1" d="M26.43,91.72c-7.85,0-15.25-3.46-20.29-9.49C1.11,76.2-.97,68.25,.44,60.42c2.26-12.5,13.59-21.56,26.94-21.56h18.48c3.87,0,7,3.13,7,7v38.86c0,3.87-3.13,7-7,7H26.43Zm19.43-7h0Zm-18.48-31.86c-6.47,0-12.13,4.32-13.17,10.05-.68,3.79,.26,7.46,2.67,10.34,2.37,2.84,5.85,4.47,9.54,4.47h12.43v-24.86h-11.48Z"/>
        <path class="cls-1" d="M65.29,52.86h-19.43c-3.87,0-7-3.13-7-7V7C38.86,3.13,41.99,0,45.86,0h18.48C77.7,0,89.03,9.07,91.28,21.56c1.41,7.83-.67,15.78-5.7,21.81-5.04,6.03-12.43,9.49-20.29,9.49Zm-12.43-14h12.43c3.69,0,7.17-1.63,9.54-4.47,2.41-2.88,3.35-6.55,2.67-10.34-1.03-5.73-6.69-10.05-13.17-10.05h-11.48v24.86Z"/>
        <path class="cls-1" d="M26.44,130.58c-6.98,0-13.76-2.8-18.7-7.74C2.65,117.75-.17,110.7,0,103.5c.18-7.36,3.38-14.23,9.01-19.33,4.59-4.16,10.9-6.45,17.77-6.45h19.08c3.87,0,7,3.13,7,7v19.08c0,6.87-2.29,13.18-6.45,17.77-5.1,5.63-11.97,8.83-19.33,9.01-.21,0-.43,0-.64,0Zm.34-38.86c-3.39,0-6.36,1-8.36,2.82-2.76,2.5-4.33,5.81-4.42,9.3-.08,3.39,1.24,6.7,3.64,9.1,2.39,2.39,5.71,3.71,9.1,3.64,3.49-.09,6.8-1.65,9.3-4.42,1.82-2.01,2.82-4.98,2.82-8.36v-12.08h-12.08Z"/>
      </g>
    </g>
  </g>
</svg>