<?xml version="1.0" encoding="UTF-8"?>
<svg id="Layer_1" data-name="Layer 1" xmlns="http://www.w3.org/2000/svg" viewBox="0 0 100 100">
  <defs>
    <style>
      .cls-1 {
        fill: #3747cc;
      }
    </style>
  </defs>
  <path class="cls-1" d="M89.29,0H10.71C4.8,0,0,4.8,0,10.71V89.29c0,5.92,4.8,10.71,10.71,10.71H89.29c5.92,0,10.71-4.8,10.71-10.71V10.71c0-5.92-4.8-10.71-10.71-10.71Zm-27.33,85.95c-1.89,.34-2.58-.83-2.58-1.8,0-1.21,.04-7.41,.04-12.42,0-3.5-1.17-5.73-2.54-6.89,8.31-.92,17.07-2.07,17.07-16.42,0-4.09-1.46-6.13-3.84-8.76,.38-.97,1.66-4.94-.38-10.11-3.12-.97-10.26,4.02-10.26,4.02-2.96-.83-6.18-1.26-9.34-1.26s-6.38,.43-9.34,1.26c0,0-7.14-4.99-10.26-4.02-2.04,5.14-.79,9.12-.38,10.11-2.38,2.63-3.5,4.67-3.5,8.76,0,14.28,8.38,15.5,16.69,16.42-1.08,.97-2.04,2.63-2.38,5.01-2.13,.97-7.59,2.63-10.85-3.12-2.04-3.55-5.73-3.84-5.73-3.84-3.64-.04-.25,2.29-.25,2.29,2.43,1.12,4.13,5.43,4.13,5.43,2.18,6.67,12.6,4.42,12.6,4.42,0,3.12,.04,8.2,.04,9.12s-.67,2.13-2.58,1.8c-14.82-4.96-25.2-19.07-25.2-35.55,0-20.62,15.76-36.27,36.38-36.27s37.32,15.65,37.32,36.27c.02,16.48-10.04,30.61-24.86,35.55Zm-22.06-13.85c-.42,.09-.83-.09-.87-.38-.04-.33,.25-.62,.67-.71,.42-.04,.83,.13,.87,.42,.07,.29-.22,.58-.67,.67h0Zm-2.12-.2c0,.29-.33,.54-.78,.54-.49,.04-.83-.2-.83-.54,0-.29,.33-.54,.78-.54,.42-.04,.83,.2,.83,.54Zm-3.06-.25c-.09,.29-.54,.42-.92,.29-.42-.09-.71-.42-.63-.71,.09-.29,.54-.42,.92-.33,.45,.13,.74,.47,.63,.76h0Zm-2.75-1.21c-.2,.25-.63,.2-.96-.13-.33-.29-.42-.71-.2-.92,.2-.25,.63-.2,.96,.13,.29,.29,.4,.74,.2,.92Zm-2.03-2.03c-.2,.13-.58,0-.83-.33s-.25-.71,0-.87c.25-.2,.63-.04,.83,.29,.25,.33,.25,.74,0,.92Zm-1.45-2.17c-.2,.2-.54,.09-.78-.13-.25-.29-.29-.62-.09-.78,.2-.2,.54-.09,.78,.13,.25,.29,.29,.62,.09,.78Zm-1.5-1.65c-.09,.2-.38,.25-.63,.09-.29-.13-.42-.38-.33-.58,.09-.13,.33-.2,.63-.09,.29,.16,.42,.4,.33,.58Z"/>
</svg>