<?xml version="1.0" encoding="UTF-8"?>
<svg id="Layer_1" data-name="Layer 1" xmlns="http://www.w3.org/2000/svg" viewBox="0 0 100 130">
  <defs>
    <style>
      .cls-1 {
        fill: #3747cc;
      }
    </style>
  </defs>
  <polygon class="cls-1" points="13.9 10.73 22.52 10.73 22.52 16.09 28.27 16.09 28.27 0 22.52 0 22.52 5.36 13.9 5.36 13.9 0 8.15 0 8.15 16.09 13.9 16.09 13.9 10.73"/>
  <polygon class="cls-1" points="36.89 16.09 42.64 16.09 42.64 5.36 48.39 5.36 48.39 0 31.14 0 31.14 5.36 36.89 5.36 36.89 16.09"/>
  <polygon class="cls-1" points="57.01 9.28 61.27 16.09 61.38 16.09 65.63 9.28 65.63 18.77 71.38 18.77 71.38 0 65.15 0 61.32 6.61 57.49 0 51.26 0 51.26 18.77 57.01 18.77 57.01 9.28"/>
  <polygon class="cls-1" points="91.5 10.73 82.88 10.73 82.88 0 77.13 0 77.13 16.09 91.5 16.09 91.5 10.73"/>
  <path class="cls-1" d="M0,24.13L9.1,119.42l40.87,10.58,40.9-10.58,9.12-95.29s-100,0-100,0ZM79.06,56.31H32.32l1.14,13.41h43.95l-3.23,33.73-24.14,6.24h-.02s-24.12-6.24-24.12-6.24l-1.68-17.64h11.05l.92,9.63,13.79,3.48h.02s13.81-3.48,13.81-3.48l1.44-14.98H22.18l-3.34-34.86h61.24l-1.03,10.73Z"/>
</svg>