<?xml version="1.0" encoding="UTF-8"?>
<svg id="Layer_1" data-name="Layer 1" xmlns="http://www.w3.org/2000/svg" viewBox="0 0 100 100">
  <defs>
    <style>
      .cls-1 {
        fill: #3747cc;
        fill-rule: evenodd;
      }

      .cls-2 {
        fill: #fdf4e5;
      }
    </style>
  </defs>
  <g id="g5891">
    <g id="background">
      <path class="cls-1" d="M87.5,0H12.5C5.6,0,0,5.6,0,12.5V87.5c0,6.9,5.6,12.5,12.5,12.5H87.5c6.9,0,12.5-5.6,12.5-12.5V12.5c0-6.9-5.6-12.5-12.5-12.5Z"/>
    </g>
    <g id="shapes">
      <g id="rect11">
        <rect class="cls-2" x="11.94" y="34.91" width="16.76" height="50.37"/>
      </g>
      <g id="path13-0">
        <path class="cls-2" d="M20.45,10.64c-5.73,0-9.48,3.77-9.48,8.71s3.63,8.71,9.25,8.71h.11c5.84,0,9.48-3.87,9.48-8.71-.11-4.94-3.63-8.71-9.36-8.71h0Z"/>
      </g>
      <g id="path15">
        <path class="cls-2" d="M69.81,33.72c-8.88,0-12.86,4.88-15.08,8.32v-7.13h-16.71c.22,4.72,0,50.37,0,50.37h16.71v-28.13c0-1.51,.11-3.01,.55-4.09,1.21-3.01,3.96-6.12,8.58-6.12,6.04,0,8.47,4.62,8.47,11.39v26.95h16.76v-28.89c0-15.47-8.26-22.67-19.27-22.67Z"/>
      </g>
    </g>
  </g>
</svg>