<svg width="146" height="121" viewBox="0 0 146 121" fill="none" xmlns="http://www.w3.org/2000/svg">
<path d="M9.91232 34.0303C11.9526 29.8396 15.1702 28.3729 19.8474 25.0122C27.075 19.8188 25.7657 18.7387 30.4429 16.1784C35.6894 13.3088 40.5852 12.8927 44.3151 12.6107C49.9829 12.1855 52.9181 12.9927 65.6359 15.503C74.3049 17.2129 69.9943 16.2488 88.0109 19.7915C94.3914 21.0466 100.902 22.3564 108.995 25.4397C114.15 27.4043 116.792 28.8846 118.909 31.6041C122.571 36.3086 122.437 41.85 122.398 43.4485C122.355 45.1902 122.17 50.0881 118.909 54.2469C116.921 56.7823 115.844 56.4253 113.328 59.1243C113.328 59.1243 109.466 63.2673 108.095 69.0519C106.756 74.7024 109.079 76.6261 110.015 84.9005C110.718 91.1218 111.404 97.2088 108.446 102.491C105.026 108.594 98.3878 110.672 91.7021 112.766C85.3603 114.751 76.1266 117.644 67.9813 113.289C63.4726 110.879 61.0133 107.166 56.9919 101.097C52.3716 94.121 53.1959 92.2132 48.6189 86.6423C44.4404 81.5535 39.6539 78.1541 38.3286 77.2377C32.547 73.2426 30.83 73.8406 28.0382 70.6186C26.2553 68.5607 26.3213 67.583 23.1538 58.6013C18.7476 46.1043 17.5065 44.8355 16.352 43.9715C13.1823 41.5999 9.92143 41.7113 9.02651 38.9213C8.44357 37.1045 9.27472 35.34 9.91232 34.028V34.0303Z" fill="#FDF4E5"/>
<path d="M77.584 117.612C74.0818 117.612 70.4748 116.948 67.0113 115.097C62.0449 112.444 59.3533 108.38 55.2795 102.229C53.0821 98.9142 52.0665 96.6949 51.1716 94.7372C50.156 92.5179 49.3522 90.767 47.034 87.9407C43.2677 83.3521 38.8751 80.105 37.1627 78.9204C34.7421 77.2491 33.0616 76.4169 31.7113 75.7506C29.8167 74.8138 28.3229 74.0748 26.4875 71.9579C24.914 70.1411 24.5042 68.9246 23.147 64.8885C22.662 63.4469 22.0585 61.6551 21.2228 59.2812C17.1991 47.8643 15.9649 46.2385 15.1247 45.6086C14.0749 44.8242 12.9796 44.3444 11.9208 43.8828C10.0376 43.0597 7.90163 42.1251 7.07503 39.5443C6.23022 36.9112 7.38244 34.5441 8.07014 33.1321C9.93283 29.3052 12.6153 27.4839 16.0128 25.1782C16.8507 24.6075 17.7183 24.0185 18.6519 23.35C22.1337 20.8488 23.5204 19.3663 24.6362 18.1771C25.8272 16.906 26.8542 15.81 29.4615 14.3843C35.2021 11.2441 40.5966 10.8394 44.1649 10.5711C49.4068 10.1777 52.5083 10.7985 61.7215 12.638C63.024 12.8972 64.4541 13.1837 66.0367 13.4952C69.6186 14.2024 70.9393 14.4434 72.6153 14.7504C74.9493 15.1779 77.8527 15.7077 88.4117 17.786C94.4575 18.9752 101.309 20.3213 109.73 23.5297C114.795 25.4579 118.014 27.1178 120.533 30.3512C123.261 33.8552 124.579 38.2778 124.452 43.5008C124.333 48.3009 123.015 52.3415 120.528 55.5112C119.292 57.087 118.31 57.7532 117.361 58.3967C116.598 58.9129 115.878 59.4017 114.833 60.5205C114.801 60.5546 111.315 64.3678 110.095 69.5249C109.402 72.449 109.837 74.1362 110.557 76.933C111.053 78.8612 111.67 81.2601 112.055 84.6732C112.775 91.0467 113.519 97.6363 110.238 103.494C106.419 110.308 99.2508 112.553 92.3193 114.722C88.3297 115.973 83.0923 117.612 77.5908 117.612H77.584ZM46.968 14.5526C46.1687 14.5526 45.3535 14.5867 44.47 14.6526C41.0611 14.9096 36.3908 15.2597 31.4289 17.9724C29.3977 19.082 28.7305 19.7938 27.6284 20.9716C26.4579 22.2222 24.8526 23.9344 21.0452 26.6721C20.0683 27.3747 19.178 27.9773 18.3172 28.5617C15.2021 30.6786 13.1413 32.077 11.7568 34.9216C11.1443 36.1813 10.6615 37.3046 10.9803 38.296C11.2217 39.0486 11.8456 39.3806 13.5671 40.1332C14.7193 40.638 16.1562 41.2656 17.584 42.3343C19.285 43.6054 20.6376 45.2903 25.0894 57.9215C25.9365 60.3226 26.5445 62.1303 27.034 63.5833C28.373 67.5648 28.5848 68.1174 29.5913 69.2793C30.8847 70.7709 31.8251 71.2371 33.533 72.0807C35.0017 72.806 36.8325 73.711 39.499 75.5528C41.8035 77.1445 46.2598 80.5348 50.2084 85.3439C52.8658 88.5796 53.8563 90.742 54.9038 93.0318C55.7782 94.9418 56.6822 96.9178 58.7043 99.967C62.5663 105.797 64.8981 109.317 68.9514 111.484C76.3384 115.431 84.8662 112.762 91.0919 110.813C97.5453 108.792 103.639 106.884 106.661 101.49C109.298 96.7836 108.66 91.1218 107.981 85.1279C107.628 81.9969 107.073 79.8458 106.585 77.9472C105.8 74.8957 105.18 72.4854 106.105 68.5789C107.583 62.3395 111.659 57.9124 111.832 57.7282C113.191 56.2707 114.225 55.5703 115.059 55.0064C115.872 54.4561 116.459 54.0559 117.302 52.985C120.212 49.2741 120.319 44.8515 120.355 43.3985C120.46 39.1441 119.431 35.5992 117.297 32.8615C115.562 30.6331 113.369 29.2939 108.268 27.352C100.173 24.2687 93.5034 22.9567 87.6193 21.7993C77.0876 19.7278 74.1979 19.2003 71.8775 18.7751C70.2539 18.4772 68.8512 18.2225 65.2442 17.5108C63.6593 17.197 62.2248 16.9105 60.92 16.6513C53.5899 15.187 50.411 14.5526 46.9748 14.5526H46.968Z" fill="#5A4949"/>
<path d="M64.8244 36.1667C66.2737 31.3276 65.8047 26.9138 63.7769 26.3082C61.749 25.7027 58.9303 29.1346 57.481 33.9737C56.0317 38.8128 56.5007 43.2265 58.5285 43.8321C60.5564 44.4377 63.3751 41.0058 64.8244 36.1667Z" fill="#5A4949"/>
<path d="M82.6828 37.9682C83.7691 33.0095 83.1858 28.6699 81.3798 28.2754C79.5738 27.8808 77.2291 31.5808 76.1427 36.5395C75.0563 41.4982 75.6397 45.8379 77.4457 46.2324C79.2517 46.6269 81.5964 42.9269 82.6828 37.9682Z" fill="#5A4949"/>
<path d="M22.1769 30.8128C22.2566 31.2698 22.5253 31.5381 23.1698 32.1998C25.2032 34.2963 24.7842 33.9507 25.1919 34.3099C26.9293 35.8493 27.6489 35.9653 29.0675 37.1727C30.4384 38.3392 30.1674 40.3038 30.83 41.0996C33.7311 44.5809 35.6029 43.7873 40.7355 49.3764C44.2286 53.1828 45.1964 55.8386 45.9456 57.0938C47.5532 59.7815 47.3164 60.2612 50.1901 66.4643C51.208 68.6631 52.7883 69.8296 53.7812 71.6259C55.7008 75.1003 56.5502 75.7734 59.9476 80.6871C64.7546 87.6405 64.7501 88.7501 67.6739 91.456C69.4683 93.1182 69.819 93.0227 72.3284 95.367C75.5642 98.3889 76.1266 99.6168 78.1259 100.167C80.0524 100.697 82.2794 100.317 83.9007 99.228C85.9456 97.8591 86.5285 95.7081 87.2003 93.0636C87.8584 90.476 88.9514 89.3686 89.2019 84.4958C89.3727 81.1601 88.1453 82.6335 88.7146 74.7069C89.1928 68.0469 89.1222 67.7217 89.5389 66.3983C90.937 61.9734 94.6055 59.3017 95.423 58.4854C98.4812 55.4271 98.8022 55.9614 100.679 53.2669C102.596 50.5133 102.988 48.2804 104.9 47.8029C105.946 47.5414 106.023 47.8825 107.553 47.9052C109.222 47.9302 111.916 47.4118 112.367 45.8951C112.649 44.9492 112.041 43.66 111.267 43.4826C110.452 43.2961 110.069 44.4808 108.655 45.2244C108.182 45.4722 107.162 45.8997 101.778 45.0902C98.6588 44.6218 97.6318 44.2716 96.828 44.956C96.1038 45.5745 95.801 46.8274 96.2769 47.5027C97.1331 48.7124 100.08 47.4459 100.54 48.3077C100.858 48.9011 99.745 50.0449 97.3768 52.3278C94.4279 55.1701 93.2779 56.1661 92.0141 57.4189C89.3043 60.1021 87.9495 61.4436 87.0637 63.315C85.7589 66.0664 85.7885 68.6517 85.8249 71.8896C85.8591 74.8229 86.2484 74.8274 86.376 78.3223C86.4056 79.1364 86.4967 82.2515 85.9638 86.3626C85.4788 90.0985 85.1645 92.336 83.6252 94.8054C82.8031 96.1265 81.7625 97.7955 80.0501 98.0206C78.3628 98.2434 76.9395 96.9428 75.3752 95.4739C72.4536 92.7339 72.613 91.3719 70.0125 88.3727C67.4804 85.4531 67.6967 85.7009 65.2146 82.8109C63.147 80.4029 62.5162 80.1209 60.1116 76.3145C56.4181 70.4617 55.8875 70.5936 54.0954 66.4643C52.5743 62.9603 52.6085 62.7647 50.8983 59.0288C49.4774 55.9205 47.6967 53.8627 45.6723 51.5252C43.8233 49.39 43.7504 47.0548 40.608 44.1306C35.7441 39.6057 31.9663 38.7735 32.4695 37.4569C32.6973 36.8612 33.813 36.3905 36.0446 35.4469C38.3696 34.4646 39.1597 34.46 39.3442 33.8393C39.7108 32.6159 37.3312 30.3716 35.9057 30.7582C35.0222 30.997 35.2089 32.0566 33.8427 33.0366C32.7041 33.8552 31.4357 33.9348 30.8164 33.9757C30.4042 34.003 29.1791 33.5482 27.6899 32.7705C24.8776 31.3062 24.3903 28.6185 23.254 28.7481C22.6005 28.8232 22.0289 29.9646 22.1792 30.8128H22.1769Z" fill="#5A4949"/>
<path d="M99.3214 5.17298L95.5323 4.36577L95.8238 2.99919L105.046 4.96606L104.755 6.33264L100.947 5.52088L98.5791 16.5945L96.9532 16.2466L99.3214 5.17298Z" fill="#5A4949"/>
<path d="M108.744 5.93699L107.223 11.0372L113.128 12.7949L114.649 7.69467L116.243 8.1699L112.606 20.3599L111.012 19.8847L112.718 14.1683L106.813 12.4106L105.108 18.127L103.532 17.6586L107.168 5.46858L108.744 5.93699Z" fill="#5A4949"/>
<path d="M120.089 9.64334C120.918 9.82752 122.043 10.23 123.076 10.6916C124.679 11.4101 125.584 12.1673 126.014 13.1451C126.367 13.925 126.34 14.8641 125.936 15.7577C125.249 17.2903 123.826 17.8746 122.416 17.7382L122.393 17.7905C123.152 18.5022 123.313 19.5686 123.049 20.8966C122.701 22.6861 122.473 23.9276 122.514 24.4847L120.961 23.7889C120.918 23.3773 121.109 22.2631 121.43 20.6692C121.806 18.9138 121.455 18.0315 120.116 17.3698L118.702 16.7354L116.443 21.7629L114.943 21.0898L120.089 9.63879V9.64334ZM119.214 15.6031L120.749 16.2898C122.352 17.0083 123.764 16.5854 124.361 15.2597C125.035 13.7613 124.242 12.6198 122.662 11.8922C121.938 11.567 121.389 11.4056 121.116 11.3646L119.212 15.6008L119.214 15.6031Z" fill="#5A4949"/>
<path d="M132.517 16.6627L124.39 26.4584L123.124 25.4101L131.251 15.6144L132.517 16.6627Z" fill="#5A4949"/>
<path d="M136.493 20.9602L140.102 26.7858L138.93 27.5112L136.186 23.0817L132.586 25.3055L135.122 29.3984L133.966 30.1124L131.429 26.0195L126.526 29.0483L125.661 27.6521L136.496 20.9602H136.493Z" fill="#5A4949"/>
<path d="M141.013 35.2331L140.469 31.404L141.854 31.2084L143.179 40.5312L141.794 40.7267L141.248 36.8771L130.022 38.4688L129.787 36.8248L141.013 35.2331Z" fill="#5A4949"/>
<path d="M140.854 50.9635C140.638 51.7366 140.298 52.7258 139.736 53.9218C139.046 55.3907 138.199 56.307 137.261 56.7027C136.416 57.0779 135.4 57.062 134.376 56.5822C133.333 56.0933 132.654 55.4021 132.328 54.5403C131.859 53.3624 132.032 51.8799 132.715 50.4269C132.925 49.9835 133.134 49.581 133.38 49.2786L128.76 47.1162L129.459 45.6291L140.856 50.9635H140.854ZM134.594 49.8471C134.357 50.1313 134.13 50.5247 133.897 51.0204C133.055 52.8144 133.415 54.3174 135.006 55.061C136.53 55.775 137.771 55.0428 138.54 53.4011C138.846 52.7508 139.028 52.2323 139.078 51.9436L134.594 49.8448V49.8471Z" fill="#5A4949"/>
<path d="M134.943 61.7324L133.875 62.9807L125.233 55.6181L121.699 59.7519L120.649 58.8583L125.251 53.4738L134.943 61.7301V61.7324Z" fill="#5A4949"/>
<path d="M120.168 65.3183L116.974 62.5646L117.625 60.9957L127.735 69.8591L126.975 71.6896L113.542 70.8278L114.216 69.2065L118.438 69.4839L120.168 65.316V65.3183ZM119.756 69.6636L123.621 69.916C124.497 69.9728 125.269 70.0865 126.021 70.1956L126.034 70.1615C125.408 69.6977 124.773 69.2111 124.151 68.6881L121.225 66.1278L119.756 69.6681V69.6636Z" fill="#5A4949"/>
<path d="M114.437 77.672L126.916 75.1117L127.278 76.8671L121.788 82.156C120.515 83.3793 119.349 84.3707 118.194 85.2257L118.222 85.2598C119.857 84.7709 121.369 84.4208 123.311 84.0228L128.532 82.9519L128.844 84.4685L116.368 87.0288L116.033 85.4031L121.551 80.1482C122.76 78.9954 124.015 77.8698 125.237 76.9648L125.208 76.9125C123.653 77.3287 122.161 77.672 120.089 78.0972L114.758 79.1909L114.446 77.6743L114.437 77.672Z" fill="#5A4949"/>
<path d="M122.912 95.6854L122.635 90.7489L118.049 91.0058L118.358 96.5085L116.981 96.5858L116.578 89.4437L129.298 88.7274L129.685 95.5876L128.307 95.6649L128.013 90.4442L123.994 90.6716L124.272 95.6081L122.912 95.6854Z" fill="#5A4949"/>
<path d="M127.53 103.075L128.407 99.3076L129.769 99.6237L127.635 108.796L126.273 108.48L127.155 104.694L116.111 102.132L116.486 100.515L127.53 103.078V103.075Z" fill="#5A4949"/>
</svg>
