<svg width="132" height="133" viewBox="0 0 132 133" fill="none" xmlns="http://www.w3.org/2000/svg">
<g clip-path="url(#clip0_17_5978)">
<path d="M111.781 22.7842C112.017 20.1187 108.568 18.1993 107.908 20.793C107.284 23.2318 104.109 26.7638 103.405 27.438C102.426 28.3763 86.2532 41.4167 81.1877 37.1875C76.1223 32.9583 78.3075 22.0067 86.0694 12.7191C86.0837 12.7019 86.101 12.6818 86.1153 12.6646C88.9237 9.31338 87.8383 7.63204 83.6372 8.84857C78.8646 10.2315 79.2351 13.0835 74.8588 18.3169C73.3828 20.0843 71.9499 21.9062 71.0281 24.1356C70.9678 24.2791 70.9965 24.7467 70.9965 24.873C71.0023 25.2517 71.9815 34.1921 71.4215 40.2748C70.8702 46.28 70.7668 51.1691 69.1616 55.0654C68.6849 56.2217 69.265 57.5932 70.428 58.058C80.0305 61.8683 85.2711 51.8778 93.2885 42.2832C97.3575 37.4142 110.977 31.8681 111.781 22.7842Z" fill="#5A4949"/>
<path d="M83.1059 23.4269C82.3737 27.8742 84.289 31.8881 87.3845 32.396C90.4801 32.9038 96.0193 31.9886 96.7516 27.5413C97.4838 23.0941 97.4924 17.5193 94.3998 17.0114C91.3071 16.5036 83.8382 18.9797 83.1059 23.4269Z" fill="#5A4949"/>
<path d="M82.1152 46.1537C82.1152 46.1537 85.1303 46.5038 86.4254 46.0246L86.7155 45.9156C87.0801 45.7463 87.3989 45.4651 87.6114 45.0635C87.9761 44.3748 87.8784 43.5084 87.3702 42.9202C86.8361 42.3033 86.0349 42.1168 85.3371 42.3291C85.429 41.6061 85.1103 40.8515 84.4096 40.4297C83.7089 40.0079 82.8704 40.0797 82.2559 40.556C81.8941 40.8343 81.6701 41.1987 81.5667 41.5831L81.5093 41.8873C81.2537 43.2444 82.1123 46.1537 82.1123 46.1537H82.1152Z" fill="#FDF4E5"/>
<path d="M71.143 1.30835C69.6153 -0.889445 65.7358 -0.152064 66.8902 2.26092C67.9757 4.53045 67.8034 9.27895 67.6971 10.2459C67.5478 11.5944 63.4989 31.9599 56.9 31.9599C50.3012 31.9599 44.9515 22.153 44.9515 10.0536C44.9515 10.0307 44.9515 10.0077 44.9515 9.9819C44.9601 5.61213 43.0448 5.01534 40.6011 8.63912C37.8243 12.7564 39.9377 14.7075 39.9377 21.5275C39.9377 23.8286 40.0066 26.144 40.7303 28.448C40.7762 28.5943 41.0978 28.9386 41.1782 29.0333C41.4252 29.3231 47.9121 35.555 51.3866 40.5846C54.8153 45.5483 57.8706 49.3672 59.1399 53.387C59.516 54.5805 60.8398 55.2634 62.0315 54.8703C71.8465 51.6482 69.4603 40.6219 69.4603 28.1209C69.4603 21.7771 76.3578 8.7998 71.1459 1.30835H71.143Z" fill="#5A4949"/>
<path d="M49.5431 21.4845C51.8346 25.3665 55.8807 27.2228 58.5799 25.6304C61.2792 24.038 64.9462 19.7859 62.6576 15.9068C60.366 12.0248 56.7967 7.7382 54.0974 9.33059C51.3982 10.923 47.2545 17.6053 49.5431 21.4873V21.4845Z" fill="#5A4949"/>
<path d="M63.3611 39.5632C63.3611 39.5632 65.8995 37.9019 66.5858 36.7026L66.738 36.4329C66.9074 36.0714 66.9735 35.6496 66.8787 35.202C66.7179 34.4417 66.0862 33.8363 65.3195 33.7129C64.5126 33.581 63.7803 33.9511 63.3812 34.5593C62.9878 33.9453 62.2584 33.5695 61.4515 33.6928C60.6446 33.8162 60.0473 34.4101 59.8779 35.1676C59.7802 35.6123 59.8405 36.0341 60.0071 36.3985L60.1564 36.6682C60.8312 37.8733 63.3553 39.5575 63.3553 39.5575H63.3611V39.5632Z" fill="#FDF4E5"/>
<path d="M114.492 110.105C117.168 110.022 118.664 106.369 116.008 106.022C113.513 105.695 109.622 102.967 108.867 102.35C107.816 101.489 92.9295 87.0052 96.5247 81.4734C100.12 75.9445 111.267 76.8024 121.421 83.3929C121.441 83.4044 121.461 83.4187 121.481 83.4302C125.146 85.8174 126.688 84.5377 124.979 80.5151C123.035 75.9474 120.247 76.6532 114.524 72.9376C112.591 71.6838 110.61 70.4816 108.284 69.8303C108.134 69.7872 107.672 69.8704 107.549 69.8876C107.172 69.9393 98.4084 71.9764 92.2949 72.1486C86.2617 72.3179 81.3916 72.7999 77.3283 71.6723C76.1222 71.3366 74.8272 72.0768 74.5084 73.2876C71.8666 83.2667 82.4196 87.2749 92.9123 94.0835C98.2361 97.5409 105.372 110.389 114.498 110.102L114.492 110.105Z" fill="#5A4949"/>
<path d="M110.432 81.7345C105.926 81.5394 102.164 83.9208 102.029 87.0482C101.894 90.1785 103.465 95.5669 107.971 95.762C112.476 95.9571 118.018 95.3 118.153 92.1726C118.288 89.0423 114.937 81.9296 110.432 81.7374V81.7345Z" fill="#5A4949"/>
<path d="M87.7291 83.4646C87.7291 83.4646 87.7405 86.4974 88.3723 87.7254L88.5159 87.9979C88.7255 88.3394 89.0442 88.6234 89.4721 88.787C90.1986 89.0653 91.0486 88.8673 91.5741 88.2906C92.1254 87.6852 92.2116 86.8704 91.9187 86.2047C92.6481 86.2076 93.3602 85.803 93.6962 85.057C94.0321 84.311 93.8598 83.4904 93.3142 82.9338C92.9955 82.6096 92.6078 82.4289 92.2116 82.3715L91.9043 82.3485C90.5231 82.2596 87.7348 83.456 87.7348 83.456L87.7291 83.4646Z" fill="#FDF4E5"/>
<path d="M130.981 67.2251C132.982 65.4462 131.788 61.6847 129.528 63.1192C127.403 64.4678 122.665 64.8637 121.688 64.8723C120.33 64.8867 99.6117 63.3 98.8248 56.7525C98.038 50.205 107.144 43.7264 119.167 42.2832C119.19 42.2832 119.213 42.2775 119.236 42.2746C123.581 41.761 123.945 39.7899 120.051 37.7987C115.629 35.5349 113.941 37.8647 107.164 38.6795C104.878 38.955 102.584 39.2993 100.381 40.292C100.241 40.3551 99.9361 40.7166 99.8529 40.8084C99.5944 41.0896 94.1758 48.2683 89.5928 52.3139C85.0701 56.3078 81.6414 59.7967 77.7993 61.5326C76.6593 62.049 76.1395 63.4435 76.6707 64.5797C81.0441 73.9303 91.7177 70.2492 104.137 68.7572C110.44 67.9997 124.161 73.2934 130.981 67.2279V67.2251Z" fill="#5A4949"/>
<path d="M108.353 48.2081C104.769 50.9453 103.408 55.1802 105.312 57.6678C107.216 60.1554 111.879 63.2857 115.463 60.5513C119.046 57.8141 122.88 53.7628 120.976 51.2724C119.072 48.7819 111.936 45.4709 108.353 48.2081Z" fill="#5A4949"/>
<path d="M92.0394 64.0747C92.0394 64.0747 93.992 66.3959 95.267 66.9324L95.5513 67.05C95.9303 67.1763 96.3582 67.1906 96.7889 67.0443C97.5269 66.7918 98.0496 66.0946 98.084 65.3199C98.1185 64.5051 97.6619 63.8222 97.01 63.498C97.5729 63.036 97.86 62.2671 97.6389 61.4781C97.4178 60.689 96.7602 60.1697 95.9849 60.0923C95.5312 60.0463 95.1177 60.1582 94.776 60.3677L94.5261 60.5485C93.4091 61.3633 92.0365 64.0689 92.0365 64.0689V64.0747H92.0394Z" fill="#FDF4E5"/>
<path d="M15.6299 108.587C15.1331 111.215 18.378 113.465 19.2911 110.949C20.1497 108.584 23.6588 105.377 24.4226 104.774C25.4908 103.933 42.8609 92.5399 47.487 97.2425C52.116 101.945 48.8682 112.633 40.2334 121.117C40.2162 121.134 40.199 121.151 40.1818 121.166C37.0575 124.224 37.9735 126.006 42.2751 125.206C47.1597 124.296 47.0706 121.421 51.9379 116.641C53.5805 115.026 55.1828 113.353 56.3199 111.224C56.3917 111.086 56.4118 110.619 56.4233 110.492C56.4549 110.114 56.3544 101.122 57.5088 95.1221C58.6459 89.2001 59.2288 84.3455 61.2073 80.6213C61.796 79.5166 61.3538 78.0935 60.2396 77.5197C51.0564 72.7884 44.8624 82.2194 35.9433 90.9848C31.4149 95.4349 17.3184 99.621 15.6299 108.584V108.587Z" fill="#5A4949"/>
<path d="M44.2336 110.751C45.3965 106.398 43.8832 102.212 40.8537 101.406C37.8242 100.599 32.2189 100.967 31.056 105.322C29.893 109.675 29.3359 115.224 32.3654 116.033C35.3949 116.839 43.0677 115.106 44.2307 110.753L44.2336 110.751Z" fill="#5A4949"/>
<path d="M47.4439 88.2304C47.4439 88.2304 44.4776 87.5877 43.1395 87.9377L42.8408 88.018C42.4618 88.15 42.1172 88.3996 41.8645 88.7812C41.4338 89.4297 41.4452 90.3019 41.8961 90.9389C42.367 91.6074 43.1452 91.8685 43.8602 91.725C43.6994 92.4337 43.9406 93.2199 44.5954 93.7076C45.2501 94.1954 46.0914 94.2069 46.7519 93.7937C47.1396 93.5527 47.398 93.2113 47.5387 92.8383L47.6277 92.5427C48.0125 91.2172 47.4468 88.2361 47.4468 88.2361H47.4439V88.2304Z" fill="#FDF4E5"/>
<path d="M67.8694 131.799C69.7675 133.684 73.4517 132.264 71.8809 130.098C70.405 128.06 69.7187 123.358 69.6497 122.388C69.555 121.034 69.8708 100.275 76.3634 99.0874C82.8561 97.8995 89.8828 106.587 92.0623 118.489C92.0652 118.512 92.0709 118.535 92.0738 118.558C92.852 122.859 94.842 123.102 96.5965 119.097C98.5865 114.549 96.1571 113.009 94.9281 106.298C94.5146 104.034 94.0293 101.767 92.9037 99.6325C92.8319 99.4948 92.4528 99.2165 92.3552 99.1361C92.0594 98.898 84.556 93.9314 80.2343 89.6076C75.97 85.3411 72.2743 82.1362 70.3016 78.4091C69.7158 77.3016 68.2915 76.8713 67.1888 77.468C58.1147 82.403 62.4479 92.8211 64.6963 105.116C65.8392 111.356 61.3911 125.363 67.8665 131.793L67.8694 131.799Z" fill="#5A4949"/>
<path d="M85.4835 108.068C82.5315 104.662 78.2156 103.563 75.8465 105.615C73.4775 107.666 70.6346 112.507 73.5866 115.912C76.5386 119.318 80.8229 122.893 83.192 120.844C85.561 118.793 88.4355 111.474 85.4806 108.068H85.4835Z" fill="#5A4949"/>
<path d="M68.6332 92.7694C68.6332 92.7694 66.4336 94.8611 65.9741 96.1637L65.8736 96.4563C65.7702 96.8437 65.7817 97.2712 65.9569 97.6901C66.2527 98.4102 66.982 98.8894 67.7602 98.875C68.5786 98.8607 69.2333 98.3643 69.5148 97.6929C70.0115 98.2237 70.7983 98.4647 71.5708 98.1979C72.3432 97.9311 72.8228 97.2396 72.8544 96.4621C72.8716 96.0059 72.7338 95.6013 72.504 95.2742L72.3088 95.0361C71.4272 93.9716 68.6418 92.7694 68.6418 92.7694H68.6361H68.6332Z" fill="#FDF4E5"/>
<path d="M24.1297 15.3702C21.5051 14.8337 19.2079 18.0414 21.7119 18.9911C24.0666 19.8835 27.2195 23.4384 27.8111 24.2131C28.6352 25.2919 39.7711 42.8197 34.9957 47.3731C30.2203 51.9237 19.5726 48.5151 11.2163 39.7612C11.1991 39.744 11.1847 39.7268 11.1675 39.7095C8.15236 36.542 6.35763 37.4285 7.09275 41.7381C7.92838 46.63 10.8057 46.587 15.515 51.522C17.1059 53.189 18.7542 54.8158 20.8676 55.9836C21.0026 56.0582 21.4735 56.0869 21.597 56.0983C21.9761 56.1356 30.9755 56.1729 36.9628 57.4182C42.8696 58.6462 47.7225 59.3004 51.4153 61.3346C52.5123 61.94 53.9423 61.5182 54.5339 60.4136C59.4098 51.3125 50.0686 44.9802 41.4338 35.9337C37.0518 31.343 33.0775 17.195 24.1326 15.3702H24.1297Z" fill="#5A4949"/>
<path d="M21.5252 43.9129C25.8641 45.1409 30.0738 43.6948 30.9296 40.6822C31.7853 37.6695 31.501 32.0632 27.1621 30.8351C22.8231 29.6071 17.2782 28.9644 16.4253 31.98C15.5724 34.9955 17.1891 42.6878 21.5281 43.9158L21.5252 43.9129Z" fill="#5A4949"/>
<path d="M44.0124 47.4649C44.0124 47.4649 44.7016 44.5126 44.3714 43.1698L44.2967 42.8714C44.1703 42.4926 43.9263 42.1426 43.5501 41.8844C42.9069 41.4454 42.0339 41.4425 41.3907 41.8844C40.7159 42.3463 40.4402 43.1181 40.5723 43.8354C39.8659 43.6633 39.0762 43.8928 38.5765 44.5412C38.0769 45.1897 38.0539 46.0275 38.4559 46.6931C38.6914 47.0833 39.0274 47.3473 39.4007 47.4936L39.6965 47.5855C41.0174 47.99 44.0067 47.4707 44.0067 47.4707H44.0095L44.0124 47.4649Z" fill="#FDF4E5"/>
<path d="M1.60232 56.2361C-0.75236 57.51 -0.447974 61.4436 2.079 60.5628C4.45666 59.7336 9.16027 60.4308 10.1108 60.6431C11.4346 60.9415 31.2455 67.2107 30.5161 73.7668C29.7867 80.32 19.4405 84.5492 7.40575 83.2121C7.38278 83.2121 7.35981 83.2064 7.33396 83.2035C2.98642 82.7129 2.18238 84.5463 5.51913 87.3753C9.30672 90.586 11.4834 88.7038 18.266 89.4584C20.5546 89.7137 22.8662 89.9002 25.2353 89.4383C25.3875 89.4096 25.7637 89.1284 25.867 89.0567C26.18 88.8415 33.0976 83.0916 38.4847 80.1966C43.7999 77.3418 47.935 74.728 52.0758 73.9131C53.3048 73.6721 54.129 72.4297 53.8705 71.2046C51.7484 61.1022 40.5177 62.2527 28.0839 60.8698C21.7722 60.1697 9.62547 51.8864 1.59945 56.2332L1.60232 56.2361Z" fill="#5A4949"/>
<path d="M19.2854 79.9155C23.4004 78.0677 25.6919 74.2574 24.4083 71.3997C23.1247 68.542 19.2998 64.4304 15.1848 66.2782C11.0699 68.126 6.41221 71.196 7.6958 74.0537C8.97939 76.9114 15.1705 81.7661 19.2854 79.9183V79.9155Z" fill="#5A4949"/>
<path d="M38.7948 68.1891C38.7948 68.1891 37.4222 65.4834 36.3052 64.6686L36.0553 64.4878C35.7136 64.2784 35.3001 64.1665 34.8464 64.2124C34.0711 64.2899 33.402 64.8493 33.1924 65.5982C32.9713 66.3844 33.2584 67.1533 33.8213 67.6181C33.1694 67.9423 32.7129 68.6223 32.7473 69.44C32.7818 70.2578 33.3044 70.9148 34.0424 71.1673C34.4731 71.3136 34.901 71.2993 35.28 71.173L35.5643 71.0554C36.8393 70.516 38.7919 68.1977 38.7919 68.1977V68.1919L38.7948 68.1891Z" fill="#FDF4E5"/>
</g>
<defs>
<clipPath id="clip0_17_5978">
<rect width="132" height="132.677" fill="white"/>
</clipPath>
</defs>
</svg>
