<?xml version="1.0" encoding="UTF-8"?>
<svg id="Layer_1" data-name="Layer 1" xmlns="http://www.w3.org/2000/svg" viewBox="0 0 100 100">
  <defs>
    <style>
      .cls-1 {
        fill: #3747cc;
      }
    </style>
  </defs>
  <path class="cls-1" d="M18.47,74h-6.47v-17h6.47c1.57,0,2.93,.19,4.07,.58,1.14,.4,2.09,.95,2.83,1.68,.76,.73,1.31,1.58,1.68,2.6,.37,1,.55,2.12,.55,3.34,0,2.78-.71,4.94-2.14,6.48-1.42,1.54-3.75,2.32-6.99,2.32Z"/>
  <path class="cls-1" d="M100,10V90c0,5.52-4.48,10-10,10H55.71c2.54,0,4.8-.31,6.76-.94,1.95-.62,3.61-1.5,4.94-2.62,1.33-1.13,2.33-2.48,3.02-4.04,.67-1.56,1-3.26,1-5.11,0-1.51-.24-2.81-.73-3.89-.5-1.08-1.15-1.99-1.97-2.75-.81-.76-1.74-1.39-2.78-1.91-1.03-.51-2.09-.96-3.18-1.35-1.08-.38-2.13-.73-3.17-1.04-1.04-.31-1.96-.64-2.79-.99-.81-.35-1.47-.75-1.96-1.21-.49-.45-.74-1.03-.74-1.73,0-.96,.38-1.71,1.14-2.25,.75-.54,1.84-.81,3.27-.81,.98,0,1.86,.12,2.63,.35,.77,.22,1.46,.47,2.07,.73,.62,.27,1.19,.51,1.71,.74,.53,.23,1.06,.34,1.59,.34,.5,0,.92-.09,1.24-.28,.32-.2,.63-.52,.92-.98l2.52-3.92c-.7-.7-1.5-1.34-2.41-1.93-.92-.58-1.92-1.09-3.04-1.53-1.1-.43-2.28-.76-3.55-1s-2.57-.36-3.92-.36c-2.47,0-4.64,.31-6.49,.95s-3.39,1.49-4.62,2.57c-1.22,1.08-2.14,2.34-2.76,3.77-.61,1.42-.92,2.93-.92,4.51,0,1.71,.25,3.16,.76,4.36,.5,1.2,1.16,2.21,1.98,3.04,.81,.83,1.74,1.51,2.8,2.05,1.04,.54,2.1,1.01,3.19,1.39s2.14,.73,3.2,1.03c1.04,.3,1.97,.62,2.8,.97,.81,.35,1.47,.76,1.98,1.24,.5,.48,.75,1.09,.75,1.84,0,.4-.08,.8-.25,1.18-.17,.39-.43,.74-.79,1.05s-.84,.56-1.44,.74-1.33,.27-2.2,.27c-1.22,0-2.23-.15-3.05-.44-.8-.28-1.5-.6-2.1-.93-.6-.34-1.16-.65-1.68-.94-.51-.29-1.1-.43-1.74-.43-.7,0-1.26,.14-1.7,.41-.43,.28-.8,.66-1.11,1.14l-2.6,4.1c.72,.65,1.58,1.26,2.6,1.82s2.1,1.05,3.3,1.46,2.42,.73,3.7,.97,2.55,.36,3.83,.36H12v-17h6.34c3.64,0,6.79-.44,9.44-1.32,2.66-.87,4.85-2.09,6.59-3.66s3.02-3.44,3.86-5.63c.84-2.18,1.26-4.59,1.26-7.22,0-2.43-.41-4.69-1.22-6.78-.82-2.09-2.09-3.91-3.81-5.45-1.72-1.54-3.91-2.75-6.57-3.63-2.67-.87-5.84-1.31-9.55-1.31H0V10C0,4.48,4.48,0,10,0H90c5.52,0,10,4.48,10,10Z"/>
</svg>