<?xml version="1.0" encoding="UTF-8"?>
<svg id="Layer_1" data-name="Layer 1" xmlns="http://www.w3.org/2000/svg" viewBox="0 0 140.83 100">
  <defs>
    <style>
      .cls-1 {
        fill: #3747cc;
      }
    </style>
  </defs>
  <path class="cls-1" d="M70.41,0c-9.63,0-17.91,2.77-24.41,8.7-6.45,5.89-10.68,14.47-13.02,25.16-.51,2.33,.6,4.72,2.66,5.7,2.05,.98,4.47,.26,5.76-1.7,2.97-4.52,5.94-7.24,8.79-8.64,2.76-1.35,5.74-1.62,9.15-.65,3.44,.98,6.11,3.86,10.29,8.7l.14,.16c3.15,3.65,7,8.11,12.26,11.56,5.46,3.59,12.25,6,21.25,6,9.63,0,17.91-2.77,24.41-8.7,6.45-5.89,10.67-14.47,13.02-25.16,.51-2.33-.6-4.72-2.66-5.7-2.05-.98-4.47-.26-5.76,1.7-2.97,4.52-5.94,7.24-8.79,8.64-2.76,1.35-5.74,1.62-9.15,.65-3.44-.98-6.11-3.86-10.29-8.7l-.14-.16c-3.15-3.65-7-8.11-12.26-11.56-5.46-3.59-12.25-6-21.25-6Z"/>
  <path class="cls-1" d="M37.55,45c-9.63,0-17.91,2.77-24.41,8.7C6.69,59.6,2.47,68.17,.12,78.86c-.51,2.33,.6,4.72,2.66,5.7,2.05,.98,4.47,.26,5.76-1.7,2.97-4.52,5.94-7.24,8.79-8.64,2.76-1.35,5.74-1.62,9.15-.65,3.44,.98,6.11,3.86,10.29,8.7l.14,.16c3.15,3.65,7,8.11,12.26,11.56,5.46,3.59,12.25,6,21.25,6,9.63,0,17.91-2.77,24.41-8.7,6.45-5.89,10.67-14.47,13.02-25.16,.51-2.33-.6-4.72-2.66-5.7-2.05-.98-4.47-.26-5.76,1.7-2.97,4.52-5.94,7.24-8.79,8.64-2.76,1.35-5.74,1.62-9.15,.65-3.44-.98-6.1-3.86-10.29-8.7l-.14-.16c-3.15-3.65-7-8.11-12.26-11.56-5.46-3.59-12.25-6-21.25-6Z"/>
</svg>