<svg width="101" height="84" viewBox="0 0 101 84" fill="none" xmlns="http://www.w3.org/2000/svg">
<path d="M6.84153 23.4883C8.24978 20.5958 10.4706 19.5835 13.6989 17.2639C18.6875 13.6793 17.7838 12.9338 21.0121 11.1666C24.6333 9.18595 28.0125 8.89874 30.587 8.70413C34.4989 8.41064 36.5249 8.9678 45.3029 10.7005C51.2864 11.8807 48.3112 11.2152 60.7465 13.6604C65.1505 14.5268 69.644 15.4308 75.2299 17.5589C78.7882 18.9149 80.6114 19.9366 82.0731 21.8137C84.6004 25.0609 84.5077 28.8856 84.481 29.9889C84.4511 31.1911 84.3238 34.5717 82.0731 37.4422C80.701 39.1921 79.9576 38.9457 78.2208 40.8086C78.2208 40.8086 75.5552 43.6682 74.609 47.6608C73.6849 51.5609 75.288 52.8886 75.934 58.5998C76.4197 62.8938 76.8927 67.0952 74.8511 70.7411C72.4904 74.9534 67.9088 76.3879 63.2943 77.8334C58.9171 79.2035 52.5438 81.1998 46.9218 78.1943C43.8098 76.5307 42.1123 73.9678 39.3367 69.779C36.1477 64.9639 36.7166 63.6472 33.5575 59.802C30.6734 56.2896 27.3697 53.9433 26.4549 53.3108C22.4643 50.5533 21.2793 50.9661 19.3524 48.7422C18.1217 47.3218 18.1673 46.647 15.981 40.4477C12.9398 31.822 12.0832 30.9463 11.2863 30.3499C9.09851 28.7129 6.84782 28.7899 6.23013 26.8641C5.82778 25.6102 6.40145 24.3923 6.84153 23.4867V23.4883Z" fill="#FDF4E5"/>
<path d="M53.5497 81.1778C51.1324 81.1778 48.6428 80.7196 46.2522 79.442C42.8243 77.6105 40.9665 74.8059 38.1547 70.5606C36.638 68.2723 35.9371 66.7405 35.3194 65.3892C34.6184 63.8575 34.0636 62.649 32.4636 60.6982C29.864 57.531 26.8321 55.2899 25.6502 54.4722C23.9795 53.3187 22.8195 52.7443 21.8875 52.2844C20.5799 51.6378 19.5488 51.1277 18.282 49.6666C17.196 48.4126 16.913 47.5729 15.9763 44.7872C15.6415 43.7922 15.225 42.5554 14.6482 40.9169C11.871 33.0368 11.0191 31.9146 10.4392 31.4799C9.7146 30.9384 8.95861 30.6073 8.22777 30.2887C6.92796 29.7205 5.45369 29.0755 4.88316 27.2942C4.30006 25.4768 5.09534 23.843 5.57 22.8683C6.85566 20.227 8.70714 18.9699 11.0521 17.3784C11.6305 16.9845 12.2293 16.578 12.8737 16.1166C15.2769 14.3902 16.2341 13.3669 17.0042 12.5461C17.8262 11.6688 18.5351 10.9123 20.3347 9.92829C24.297 7.76089 28.0203 7.48153 30.4832 7.29634C34.1013 7.02483 36.242 7.45328 42.6011 8.72296C43.5001 8.90188 44.4872 9.09963 45.5795 9.31464C48.0518 9.80274 48.9634 9.9691 50.1202 10.181C51.7312 10.476 53.7351 10.8417 61.0232 12.2762C65.196 13.097 69.9253 14.0261 75.7375 16.2406C79.233 17.5715 81.4554 18.7172 83.1937 20.9489C85.0766 23.3674 85.9867 26.42 85.8987 30.025C85.8169 33.3381 84.9069 36.127 83.1906 38.3148C82.3371 39.4024 81.6597 39.8623 81.0043 40.3064C80.4778 40.6627 79.9811 41.0001 79.2597 41.7723C79.2377 41.7958 76.8314 44.4278 75.989 47.9873C75.5112 50.0056 75.8114 51.1701 76.3081 53.1005C76.6507 54.4314 77.0766 56.0872 77.3422 58.4429C77.8389 62.842 78.3528 67.3903 76.088 71.4332C73.4522 76.1368 68.5045 77.6858 63.7202 79.1831C60.9666 80.0463 57.3516 81.1778 53.5544 81.1778H53.5497ZM32.418 10.0444C31.8663 10.0444 31.3036 10.068 30.6938 10.1135C28.341 10.2908 25.1174 10.5325 21.6926 12.4049C20.2907 13.1708 19.8301 13.662 19.0694 14.475C18.2616 15.3382 17.1535 16.52 14.5256 18.4096C13.8514 18.8945 13.2368 19.3104 12.6427 19.7138C10.4926 21.1749 9.0702 22.1401 8.1146 24.1035C7.69181 24.973 7.35861 25.7483 7.57865 26.4326C7.74525 26.952 8.1759 27.1812 9.36411 27.7007C10.1594 28.0491 11.1512 28.4822 12.1366 29.2199C13.3107 30.0972 14.2443 31.2602 17.317 39.9784C17.9017 41.6357 18.3213 42.8834 18.6592 43.8863C19.5834 46.6344 19.7296 47.0158 20.4243 47.8178C21.317 48.8473 21.9661 49.1691 23.1449 49.7513C24.1586 50.252 25.4223 50.8766 27.2628 52.1479C28.8533 53.2465 31.9292 55.5865 34.6545 58.9059C36.4887 61.1392 37.1724 62.6317 37.8954 64.2122C38.4989 65.5305 39.1229 66.8943 40.5186 68.999C43.1842 73.023 44.7936 75.4525 47.5913 76.9482C52.6899 79.6727 58.576 77.8302 62.8731 76.4852C67.3273 75.09 71.5332 73.7732 73.6189 70.0505C75.4389 66.8017 74.9988 62.8938 74.5304 58.7568C74.2868 56.5957 73.9033 55.111 73.567 53.8005C73.0247 51.6943 72.5972 50.0307 73.2354 47.3344C74.2554 43.0278 77.0688 39.9721 77.1882 39.845C78.1265 38.839 78.8401 38.3556 79.4153 37.9664C79.9764 37.5866 80.3819 37.3104 80.9635 36.5711C82.9721 34.0098 83.046 30.9573 83.0711 29.9544C83.1434 27.018 82.433 24.5712 80.9603 22.6816C79.7627 21.1435 78.2491 20.2191 74.7285 18.8788C69.141 16.7507 64.5375 15.8451 60.4762 15.0462C53.207 13.6165 51.2125 13.2524 49.6109 12.9589C48.4903 12.7533 47.5221 12.5775 45.0325 12.0863C43.9386 11.8697 42.9485 11.6719 42.0479 11.493C36.9885 10.4823 34.7944 10.0444 32.4227 10.0444H32.418Z" fill="#3747CC"/>
<path d="M44.7431 24.9629C45.7434 21.6228 45.4197 18.5764 44.0201 18.1584C42.6204 17.7404 40.6748 20.1092 39.6745 23.4492C38.6742 26.7893 38.9979 29.8357 40.3976 30.2537C41.7972 30.6717 43.7428 28.3029 44.7431 24.9629Z" fill="#3747CC"/>
<path d="M57.069 26.2063C57.8189 22.7837 57.4162 19.7884 56.1697 19.5161C54.9231 19.2438 53.3048 21.7976 52.555 25.2202C51.8051 28.6428 52.2078 31.6381 53.4543 31.9104C54.7008 32.1827 56.3192 29.6289 57.069 26.2063Z" fill="#3747CC"/>
<path d="M15.3067 21.2675C15.3617 21.583 15.5471 21.7682 15.9919 22.2249C17.3955 23.6719 17.1063 23.4333 17.3876 23.6813C18.5868 24.7438 19.0835 24.8239 20.0627 25.6572C21.0088 26.4624 20.8218 27.8184 21.2792 28.3677C23.2815 30.7705 24.5735 30.2228 28.1161 34.0804C30.5271 36.7077 31.1951 38.5408 31.7122 39.4071C32.8218 41.2622 32.6584 41.5934 34.6419 45.8748C35.3444 47.3924 36.4352 48.1976 37.1205 49.4374C38.4454 51.8355 39.0317 52.3001 41.3767 55.6917C44.6945 60.491 44.6914 61.2569 46.7095 63.1245C47.948 64.2718 48.19 64.2059 49.9221 65.824C52.1555 67.9098 52.5437 68.7573 53.9236 69.1371C55.2533 69.5027 56.7904 69.2407 57.9095 68.4889C59.3209 67.5441 59.7233 66.0594 60.1869 64.2341C60.6411 62.4481 61.3956 61.6838 61.5684 58.3205C61.6863 56.0181 60.8392 57.0351 61.2321 51.564C61.5622 46.9671 61.5134 46.7427 61.8011 45.8293C62.7661 42.7752 65.2981 40.9311 65.8624 40.3676C67.9732 38.2567 68.1948 38.6255 69.4899 36.7658C70.8133 34.8652 71.0836 33.324 72.4038 32.9944C73.1252 32.8139 73.1787 33.0493 74.2349 33.065C75.3869 33.0823 77.2463 32.7244 77.5575 31.6776C77.7524 31.0247 77.3327 30.1349 76.7983 30.0124C76.2357 29.8838 75.9716 30.7014 74.9956 31.2146C74.6687 31.3857 73.9645 31.6808 70.249 31.122C68.0958 30.7987 67.3869 30.557 66.8321 31.0294C66.3323 31.4563 66.1233 32.3211 66.4518 32.7872C67.0427 33.6222 69.0765 32.748 69.394 33.3428C69.614 33.7524 68.8455 34.5419 67.2109 36.1176C65.1755 38.0794 64.3818 38.7668 63.5095 39.6316C61.6392 41.4835 60.704 42.4095 60.0926 43.7011C59.192 45.6001 59.2124 47.3846 59.2376 49.6195C59.2612 51.6441 59.5299 51.6472 59.618 54.0594C59.6384 54.6213 59.7013 56.7714 59.3335 59.609C58.9987 62.1876 58.7818 63.7319 57.7193 65.4363C57.1519 66.3482 56.4337 67.5001 55.2517 67.6555C54.0871 67.8093 53.1048 66.9116 52.025 65.8977C50.0085 64.0066 50.1185 63.0665 48.3236 60.9964C46.5759 58.9812 46.7252 59.1523 45.012 57.1575C43.5849 55.4955 43.1495 55.3009 41.4898 52.6736C38.9405 48.6339 38.5743 48.7249 37.3374 45.8748C36.2875 43.4563 36.311 43.3213 35.1307 40.7427C34.1499 38.5973 32.9208 37.177 31.5236 35.5636C30.2474 34.0899 30.1971 32.478 28.0281 30.4597C24.6709 27.3365 22.0635 26.7621 22.4108 25.8534C22.568 25.4422 23.3381 25.1174 24.8784 24.466C26.4831 23.788 27.0285 23.7849 27.1558 23.3564C27.4089 22.5121 25.7664 20.963 24.7825 21.2298C24.1727 21.3946 24.3016 22.126 23.3585 22.8024C22.5727 23.3674 21.6972 23.4224 21.2697 23.4506C20.9853 23.4694 20.1397 23.1556 19.1118 22.6188C17.1707 21.6081 16.8344 19.753 16.0501 19.8425C15.599 19.8943 15.2045 20.6821 15.3082 21.2675H15.3067Z" fill="#3747CC"/>
<path d="M68.5533 3.57049L65.938 3.01333L66.1392 2.0701L72.5046 3.42767L72.3034 4.3709L69.6755 3.81061L68.0409 11.4538L66.9187 11.2137L68.5533 3.57049Z" fill="#3747CC"/>
<path d="M75.0571 4.09783L74.0072 7.61809L78.0827 8.83126L79.1326 5.311L80.2328 5.63902L77.7227 14.0528L76.6225 13.7248L77.7998 9.77921L73.7243 8.56603L72.5471 12.5116L71.4595 12.1883L73.9695 3.77452L75.0571 4.09783Z" fill="#3747CC"/>
<path d="M82.8875 6.65602C83.4596 6.78314 84.236 7.06093 84.9496 7.37953C86.0561 7.87547 86.6801 8.3981 86.9771 9.07296C87.2207 9.61128 87.2019 10.2595 86.9237 10.8762C86.449 11.9341 85.4667 12.3374 84.4938 12.2432L84.4781 12.2793C85.0015 12.7706 85.1131 13.5066 84.9307 14.4232C84.6903 15.6583 84.5331 16.5153 84.5614 16.8998L83.4895 16.4195C83.4596 16.1354 83.5916 15.3664 83.8133 14.2662C84.0726 13.0546 83.8305 12.4457 82.9064 11.989L81.9304 11.5511L80.3712 15.0211L79.3354 14.5566L82.8875 6.65288V6.65602ZM82.284 10.7695L83.3433 11.2435C84.4498 11.7394 85.4243 11.4475 85.8361 10.5325C86.3013 9.49828 85.7543 8.71042 84.6636 8.20819C84.1637 7.98376 83.785 7.87233 83.5964 7.84408L82.2824 10.768L82.284 10.7695Z" fill="#3747CC"/>
<path d="M91.4657 11.5009L85.8563 18.262L84.9824 17.5385L90.5919 10.7774L91.4657 11.5009Z" fill="#3747CC"/>
<path d="M94.21 14.4671L96.7012 18.488L95.8918 18.9887L93.9978 15.9314L91.513 17.4663L93.2639 20.2913L92.4654 20.7841L90.7145 17.9591L87.3306 20.0496L86.7334 19.086L94.2116 14.4671H94.21Z" fill="#3747CC"/>
<path d="M97.3296 24.3185L96.954 21.6756L97.9096 21.5406L98.8243 27.9753L97.8687 28.1103L97.4915 25.4532L89.7429 26.5518L89.5811 25.4171L97.3296 24.3185Z" fill="#3747CC"/>
<path d="M97.2199 35.1759C97.0706 35.7095 96.8364 36.3922 96.4482 37.2178C95.972 38.2316 95.3873 38.8641 94.7398 39.1372C94.1567 39.3961 93.4557 39.3852 92.7484 39.054C92.0286 38.7166 91.5602 38.2395 91.3354 37.6446C91.0117 36.8317 91.1311 35.8084 91.6026 34.8055C91.7472 34.4995 91.8918 34.2217 92.0616 34.013L88.8726 32.5204L89.3551 31.494L97.2215 35.1759H97.2199ZM92.8993 34.4053C92.7358 34.6015 92.5787 34.873 92.4183 35.2152C91.8368 36.4534 92.0851 37.4908 93.1838 38.004C94.2352 38.4969 95.0918 37.9915 95.6231 36.8584C95.8337 36.4095 95.9594 36.0517 95.994 35.8523L92.8993 34.4038V34.4053Z" fill="#3747CC"/>
<path d="M93.1396 42.6088L92.4024 43.4704L86.4378 38.3886L83.9985 41.2418L83.2739 40.625L86.4504 36.9086L93.1396 42.6072V42.6088Z" fill="#3747CC"/>
<path d="M82.9423 45.0838L80.7372 43.1832L81.1867 42.1003L88.1651 48.218L87.6402 49.4814L78.3687 48.8866L78.8339 47.7675L81.7478 47.959L82.9423 45.0822V45.0838ZM82.6579 48.083L85.3251 48.2572C85.9302 48.2965 86.463 48.3749 86.9816 48.4503L86.9911 48.4267C86.5588 48.1066 86.1203 47.7707 85.6913 47.4097L83.6716 45.6425L82.6579 48.0862V48.083Z" fill="#3747CC"/>
<path d="M78.9863 53.6106L87.5993 51.8434L87.8492 53.055L84.0598 56.7055C83.1812 57.5499 82.3765 58.2342 81.5797 58.8243L81.5985 58.8478C82.727 58.5104 83.7706 58.2687 85.1113 57.994L88.7152 57.2548L88.9306 58.3016L80.3191 60.0688L80.0881 58.9467L83.8964 55.3197C84.7309 54.524 85.5969 53.7471 86.441 53.1225L86.4205 53.0864C85.347 53.3736 84.3176 53.6106 82.8873 53.9041L79.2079 54.659L78.9926 53.6121L78.9863 53.6106Z" fill="#3747CC"/>
<path d="M84.8364 66.0437L84.6446 62.6364L81.4792 62.8138L81.6929 66.6118L80.7421 66.6652L80.4639 61.7356L89.2434 61.2412L89.5106 65.9762L88.5598 66.0296L88.357 62.4261L85.5829 62.5831L85.7747 65.9903L84.8364 66.0437Z" fill="#3747CC"/>
<path d="M88.0237 71.1444L88.6289 68.5438L89.5687 68.762L88.096 75.0931L87.1562 74.875L87.7644 72.2618L80.1416 70.4931L80.4009 69.3772L88.0237 71.146V71.1444Z" fill="#3747CC"/>
</svg>
