<svg width="246" height="57" viewBox="0 0 246 57" fill="none" xmlns="http://www.w3.org/2000/svg">
<path d="M17.2344 45.0786C18.1339 45.3045 19.5072 39.5101 20.7838 36.2402C22.428 34.7323 19.9231 40.521 19.3428 43.4973C20.5421 42.0515 22.7858 36.8445 23.2307 37.1268C22.9599 38.0756 22.9502 38.4314 22.4473 39.6005C24.6717 35.122 24.7104 39.623 27.4281 33.9868C27.3314 34.5007 27.2056 34.9864 27.0799 35.4269C27.873 32.5298 28.8014 29.61 29.5074 27.5317C29.962 27.4809 31.4611 23.9907 30.3972 27.7632C30.1748 27.6221 29.6622 29.1356 29.1689 30.2933L30.1361 28.7177C28.7821 34.1506 28.9368 30.5136 27.6409 34.5064C29.0626 32.846 31.5094 28.4918 31.6642 30.09C30.0974 35.3818 29.5558 31.6939 28.9175 36.483L28.5596 34.3539C26.635 42.7687 28.1244 33.7101 25.958 42.6897C26.8091 44.367 28.3275 40.1652 29.1689 41.8538C30.4165 38.9566 30.4746 37.5052 31.7125 34.6024C35.3103 29.5366 28.9368 48.0379 32.6023 41.1592C34.0917 37.6803 36.3741 31.0162 36.2387 34.6589L33.9853 40.5888C35.0975 41.323 37.467 32.0892 37.5444 36.2515C36.5579 38.5726 35.8906 38.1152 35.8615 38.8493C35.2426 43.661 37.5637 35.5286 38.2407 35.602L36.6933 40.905C38.3471 40.2217 41.0841 36.5734 42.912 35.7714C42.3317 37.3358 41.5483 38.9623 41.3936 40.617C44.1596 38.1886 45.3202 41.7126 46.2293 45.0447L48.3667 40.5549C48.5214 40.6227 48.0378 42.6501 47.5833 43.5142C47.7767 45.3214 48.5214 40.6227 49.4305 38.8663C49.9431 38.5896 49.1694 41.5489 48.473 42.893C50.9683 39.16 54.7111 34.9356 54.5757 39.9732L53.8987 41.3004C54.3919 43.2657 57.951 32.061 57.6319 36.4209L57.1966 37.2116C58.8891 39.431 62.6707 35.5116 62.3708 42.588C64.663 36.0369 63.7829 45.7506 66.6553 36.579C66.6263 41.2608 65.7558 42.8704 66.723 46.1177C67.1002 46.5921 69.1408 40.4532 70.0306 39.5553L68.6476 44.3613L70.9494 39.4028L69.7211 45.1915L70.6592 44.0168C70.5142 43.7119 70.7946 41.8086 71.2299 40.4306C72.7579 38.3411 72.4484 43.9942 71.7618 46.4622L75.0597 42.6106C74.4601 44.542 73.9185 45.1689 73.2802 46.3718C75.8238 41.5771 72.0422 51.4546 74.3731 47.0665C74.5471 45.9596 75.2628 44.2088 75.5626 43.2431C75.2531 46.2024 76.4427 46.338 77.6613 45.1972L76.5588 48.501C77.9225 49.4949 80.3693 47.2246 82.1392 47.4505C81.9264 45.8466 83.6576 40.1087 84.3249 39.6061L83.1353 44.7115C84.3346 41.5997 83.116 42.7461 84.8665 38.9566C85.3694 39.6061 83.7253 44.7792 82.8936 46.4057L84.1895 44.7171C83.822 46.242 83.4158 47.0213 82.8355 48.9528C84.0251 45.824 82.8549 54.188 84.8278 48.7495L84.4603 50.2686C86.2399 50.4776 87.5262 48.8059 89.0446 48.6873C90.2438 44.2936 90.5533 45.3214 91.917 41.8143C92.6036 43.3165 92.8938 46.8688 94.2865 46.609C95.7565 44.5025 95.5147 42.9043 96.5979 40.3346C95.6308 44.3387 97.0138 44.0789 95.6018 46.9027C97.3233 46.3831 97.7972 46.2758 100.573 43.1866C100.776 41.5263 100.718 40.7921 101.182 39.4367C101.695 38.8098 101.559 41.1874 101.027 43.1076L100.834 43.5142C104.499 37.6916 103.039 55.6394 106.84 47.4279L106.647 47.8346L109.509 43.6215C110.186 44.3783 108.291 46.5977 108.32 49.1278C111.869 42.5824 111.221 50.3364 113.881 46.0048C112.449 57.9493 118.533 45.5134 118.562 53.211L119.074 50.4098C120.109 47.7103 119.258 52.0476 119.451 52.714C119.877 50.5397 119.519 50.167 120.119 48.6704C124.539 45.6038 126.966 53.2844 130.39 56.0799C131.676 56.9271 133.988 41.6731 134.471 48.4671L132.972 53.6233C134.993 50.6075 136.425 50.76 137.846 51.0254C139.268 51.2852 140.67 51.6523 142.527 49.0883C142.15 50.2799 141.879 51.8387 141.609 51.8048C141.541 55.6168 143.775 52.1154 144.297 49.0318C144.674 49.4046 143.93 51.8217 143.93 53.403C144.152 55.6677 146.232 48.6647 145.922 52.4429C145.874 53.0585 145.555 53.6572 145.39 53.9452C146.077 52.138 147.121 54.5156 147.46 50.1331C148.175 52.2735 149.771 48.3089 150.197 50.935C151.502 46.0895 151.628 53.3861 152.856 46.4961C151.696 53.6176 153.833 52.3526 154.984 49.0262C154.443 51.1722 155.236 51.2852 154.539 54.2558C155.323 54.188 156.212 52.9004 156.599 49.2295C156.812 57.8194 160.352 42.4863 159.646 53.4538C162.431 49.7208 164.83 47.219 167.035 45.6377C166.116 52.7479 164.723 46.2476 163.892 53.7193C166.203 50.8729 168.012 44.8131 169.704 46.6147C170.081 47.6087 169.075 49.6926 168.776 50.8955C171.01 48.0605 172.451 51.6692 174.559 47.8515C174.491 48.5123 174.23 49.2351 173.998 49.7717C174.356 49.5514 174.685 50.839 174.965 47.603L174.549 48.4671C174.491 43.7514 176.842 38.6969 177.122 36.2119C175.671 45.4739 178.553 38.5952 176.561 50.2912C176.842 49.6869 177.267 48.1621 177.412 45.9935C177.683 46.6316 177.673 47.9023 177.112 50.3533C178.486 48.6309 178.36 45.1746 179.443 45.2762C179.298 46.8462 179.027 47.4449 178.756 49.286C179.579 46.2476 180.391 43.2036 181.194 44.559C181.058 45.5021 181.068 46.7333 180.787 46.705C182.422 46.2815 184.105 38.6404 185.584 41.6505C184.588 48.4501 186.01 43.9095 185.681 49.8112L186.745 48.0774L186.561 45.2085C187.374 45.3271 188.37 41.0349 188.94 42.9833L188.186 45.4061L189.782 44.3105L189.056 42.0571C190.062 39.0301 189.434 34.5911 190.391 36.2515C190.14 36.8501 191.175 36.3362 191.407 39.8207C191.407 39.8207 191.407 39.8207 191.407 39.8377C191.91 37.9627 192.422 35.9973 192.935 37.4657C192.993 39.3576 192.471 43.9886 192.509 45.248C193.157 40.3233 194.482 43.9095 195.217 38.663C194.995 39.8941 194.85 42.9946 194.869 43.6271L195.382 39.623C195.701 40.9107 195.73 41.5319 195.556 43.9999C196.658 44.751 195.517 36.5056 196.716 39.7529C196.6 40.0749 196.629 40.6791 196.378 41.2778C197.654 42.9833 199.057 38.7759 200.217 40.7638C200.401 46.7107 199.095 42.204 199.357 47.219C201.213 46.1742 203.254 40.1596 204.937 41.5489L204.627 40.8937C204.995 32.5072 205.846 45.039 206.775 41.0858C206.552 41.7013 206.446 45.7393 206.513 44.8018C207.693 46.1516 208.98 42.7405 210.749 40.1031L210.537 42.2548C211.243 44.175 212.384 43.3617 213.148 44.3444C213.351 42.1927 213.786 42.5428 213.486 39.4084C214.705 45.5417 215.827 43.8982 216.852 41.995C217.887 40.1031 218.844 37.9288 220.034 43.0172C219.792 43.0454 219.502 44.9148 219.695 44.9148L221.398 42.8986C221.127 39.2503 221.088 40.6904 220.624 37.8554C220.769 35.6867 221.195 33.9981 221.62 33.9925C220.943 36.4265 221.843 39.8602 222.268 41.8934C222.171 40.7751 222.239 39.5383 222.162 38.4032C223.332 44.8865 222.017 31.0501 223.419 35.4043L223.438 37.3245C223.854 36.3362 224.164 33.7948 224.676 34.3313C225.082 38.5557 224.28 36.3136 224.415 39.7868C225.121 39.5327 225.402 31.756 226.243 35.9578C226.011 37.1381 225.585 37.1664 225.344 38.3411C226.291 43.2883 226.311 42.0289 226.872 42.8083L226.814 42.6953L228.148 44.9204L227.761 43.582C228.003 32.5523 229.454 41.5376 230.17 34.3031C229.483 41.1535 230.237 38.2563 230.469 43.0455C230.866 44.367 231.437 45.8466 231.398 47.1964C231.698 43.3222 232.578 50.2235 232.974 44.559C233.129 46.0951 233.593 44.7002 233.758 48.5687C234.415 47.3432 233.381 45.8918 233.293 43.9603C233.999 38.6912 236.514 50.2517 237.549 42.9833C238.69 39.9619 238.448 34.7605 239.454 32.1288C240.131 34.5742 239.667 37.7481 239.667 37.7481C240.595 39.9901 241.089 39.5553 241.563 37.7707C241.563 39.1148 241.833 40.2499 242.22 41.9668C242.713 41.5489 241.969 36.3531 242.917 38.5952C242.984 40.3177 243.129 43.068 243.062 44.7962C243.545 43.3561 243.855 40.4589 244.338 39.047C244.822 41.7239 244.416 43.1302 244.377 44.8922C244.986 43.6554 246.021 42.3903 245.731 38.1377L245.083 36.6355C245.325 36.4266 245.654 40.2782 245.547 41.0575C245.305 44.4065 244.464 39.623 244.251 38.0756L244.599 37.0704C243.081 28.0626 242.936 38.5839 241.93 38.0926L241.601 31.5132L241.243 36.997C240.857 35.297 240.344 31.6318 240.692 30.6378C239.706 27.4187 240.363 32.9929 239.435 29.3954C239.319 28.8363 239.309 28.52 239.338 28.2546L238.903 30.2312C238.893 28.8476 238.342 25.6002 238.816 26.5321C237.336 22.7821 237.481 31.5245 236.582 26.5603L236.64 26.1537C235.286 28.4297 236.94 30.9823 236.243 36.6863L234.425 24.8209L234.676 29.6495C234.502 29.4801 234.154 29.1299 234.048 27.1985C233.719 30.5192 234.328 29.2937 234.232 32.4225C233.1 28.0682 232.21 34.5346 231.466 26.854C231.456 30.5249 232.423 29.6665 231.775 32.2304C230.943 23.9681 230.905 33.6649 229.928 29.8811C229.86 25.6115 230.673 27.8536 229.715 24.0641C229.773 31.2817 228.245 22.5054 227.752 23.8947C228.071 29.6382 226.601 26.3118 225.711 28.2433C225.672 26.3118 223.67 25.1202 222.665 23.0532V22.0931C222.723 27.8988 221.717 26.8201 221.059 28.04C220.962 24.5611 221.03 23.1887 221.349 21.63L220.701 21.6696C220.614 23.5332 220.45 24.5159 220.044 25.188L220.063 20.845C219.222 21.0935 218.487 25.9956 217.297 23.0984C217.316 27.1477 218.487 34.3709 217.326 37.076C217.229 34.8904 217.104 31.1461 217.394 30.2482C217.297 30.5362 217.065 32.0667 216.833 31.1348L217.229 27.4526C216.678 25.8374 217.026 30.5305 216.61 30.186C216.552 27.0629 216.262 27.9609 216.272 25.4816C216.369 25.1823 216.659 26.7749 216.784 25.5438C216.31 24.9847 215.721 23.1379 215.498 20.766C215.566 22.5393 215.575 24.9677 215.247 25.3743C214.376 25.6002 214.889 21.6187 214.367 20.0148C214.192 22.1835 213.612 19.9358 213.651 24.6006C213.399 24.578 213.322 22.3981 213.216 21.1387C212.79 23.1944 211.136 21.726 211.668 26.6902L211.784 27.0178C211.765 27.1138 211.736 27.1194 211.707 27.2211C210.227 31.8633 208.622 24.578 207.152 26.5773L207.171 25.0129C206.281 26.7975 205.217 26.069 204.521 29.4293C204.26 29.4293 203.96 26.5829 204.105 24.7192C203.419 25.8883 203.293 27.6559 202.393 25.0637C203.128 22.3473 202.219 22.6466 203.128 23.0758C202.297 21.7147 202.181 19.2129 201.126 23.4655C201.552 19.4727 200.633 18.4166 200.188 19.6082L200.701 22.4772C200.217 23.0532 199.83 22.6918 199.434 22.3473L199.83 17.0894C199.076 13.876 198.206 16.5868 197.374 18.7554C196.552 20.9241 195.778 22.5619 195.362 17.1967C194.724 20.8676 196.194 19.8002 195.575 24.098C195.178 23.7366 194.859 21.6639 194.618 19.6816C194.501 18.6651 194.385 17.7502 194.298 16.9991C194.211 16.2762 194.134 15.8018 194.076 15.7961C193.147 12.8651 192.645 23.4655 191.59 21.455C191.629 23.3299 191.484 28.3393 190.488 30.09C189.695 29.3841 189.966 22.2061 190.565 20.7095C190.768 20.557 190.826 21.15 190.778 21.7882C191.078 21.1105 191.474 20.3142 191.271 18.2754L191.058 20.1504C190.768 18.2302 189.656 18.4166 190.111 15.3443C189.395 17.1233 189.656 18.4166 190.043 19.3936C189.192 16.6602 188.438 19.292 187.499 17.4283C187.596 18.4674 187.596 20.6756 187.432 20.6474C186.029 18.2754 186.484 24.1827 185.343 24.9734C184.956 22.0988 186.078 18.1568 184.82 20.5175C184.318 18.5634 185.082 15.5363 185.449 14.0172C184.201 17.6033 183.853 11.5887 183.37 10.9054L183.998 9.40878C183.621 10.3011 183.379 10.2616 183.138 10.2503L183.109 14.0059C182.867 13.3451 182.615 13.3225 182.76 11.7582C182.238 14.2035 182.461 17.9987 181.551 21.342C181.319 19.4275 180.139 23.3469 180.449 18.3714C181.551 20.0995 180.768 13.3733 181.89 12.5996C181.639 13.187 181.387 13.1587 181.155 12.4867C181.155 11.9276 181.29 11.4588 181.397 11.1765C180.623 6.69797 180.343 16.7844 179.105 16.632C179.53 13.8364 179.327 11.3063 179.076 11.8993C179.559 11.9728 178.863 16.5811 178.196 18.7159C177.615 16.5077 177.161 20.3142 176.764 20.0431L177.141 21.0879C176.696 23.8834 176.329 23.505 175.671 24.3691C175.845 22.1835 176.339 22.8838 176.232 21.9181C175.091 26.8258 175.352 16.7788 174.143 20.0713C173.95 18.1624 174.675 14.8078 174.472 13.5089C173.108 17.1007 173.863 9.62339 172.528 12.5827C172.383 16.3609 172.547 15.4403 171.406 19.0773L173.379 16.5077L171.687 21.935C172.19 22.0141 173.031 19.6195 173.263 20.269C172.402 23.3186 172.557 22.3811 172.46 25.5212C172.393 19.8454 170.691 28.7516 170.313 24.8999L171.426 15.5815C170.729 11.3741 168.727 20.269 167.441 17.8518L167.741 19.4953C167.064 23.1887 166.706 19.9697 166.01 21.4493C166.454 18.3375 166.29 17.1967 166.329 15.2427C166.048 17.5525 165.226 14.9829 164.249 21.1895L164.104 17.0612C163.079 15.3274 161.445 25.8657 160.352 24.7531C161.203 21.3872 160.961 19.1564 162.112 16.7732C161.715 16.7223 161.435 16.1406 161.116 18.298C161.164 16.3383 159.385 22.4376 159.443 19.467C159.075 20.8224 158.534 24.0811 158.108 23.7987C158.147 23.1662 158.34 22.2626 158.34 22.2626C158.108 23.7987 157.305 24.3126 157.199 27.7745C157.392 17.9987 153.524 28.2828 153.737 19.8849C152.682 20.8789 151.444 21.8164 150.593 21.9971C150.796 21.0709 150.854 20.4497 150.951 20.7773C150.323 17.8236 148.765 29.6608 148.021 26.3627C148.224 21.3025 149.162 23.6857 149.075 21.7599C150.642 11.5266 147.305 23.0701 147.479 17.0499L147.789 16.4625C147.75 12.9554 145.526 20.2464 144.578 19.4557C144.578 19.4557 144.791 18.5521 144.858 17.914C143.195 23.0871 141.473 24.7079 140.158 26.0859C141.231 22.1157 141.028 24.002 141.589 19.9301C141.019 20.4723 140.506 26.4587 139.365 27.5317C139.471 25.3235 139.171 23.3695 139.906 19.0322L140.816 18.8571C141.435 13.2209 139.665 18.9757 139.394 17.9704L139.926 15.5251C138.456 16.231 137.237 22.4037 135.883 21.8616L135.661 23.7309C133.659 29.7851 135.69 20.2464 133.997 24.7362L135.003 18.5182C134.191 19.981 131.986 24.386 130.806 25.4929C132.285 20.9354 133.842 18.6538 135.061 15.9712C134.568 15.8921 133.243 16.3101 132.353 19.3541C132.682 18.7724 133.253 17.2701 133.262 18.2359C131.637 23.0645 130.303 25.4026 129.297 25.2275C132.005 13.2322 127.266 22.0197 128.543 12.6279C125.786 16.9256 125.419 10.4592 123.204 11.007C121.831 20.3989 122.537 11.2273 120.486 20.8224C119.858 21.3985 119.703 21.2234 119.8 20.5965L119.635 14.757C119.935 11.9389 120.583 12.6787 121.038 10.527C120.157 9.7081 121.531 6.43253 121.434 3.83467C120.776 7.27401 119.925 8.71413 119.635 7.35873L119.451 11.8429C116.772 16.824 120.07 3.70478 117.391 8.64072L118.571 5.66447C117.391 7.38697 115.796 5.38209 113.175 13.0006C113.31 11.8824 113.765 9.25065 114.277 8.58989C112.749 7.27966 108.175 16.4174 107.933 11.5605L108.658 9.23371C108.146 9.87752 106.956 13.5767 107.12 11.1878C107.391 10.222 107.846 8.86662 107.73 8.71413C107.343 9.50479 105.776 12.7352 105.67 11.3289L106.724 8.73108C105.737 5.51763 102.343 14.9038 100.399 16.3722C102.198 9.49349 101.395 7.13847 100.989 5.95249L101.269 4.98112C99.4316 3.93633 96.2207 10.3519 93.5418 12.8651C94.3832 5.29173 90.3309 9.3636 89.5765 4.99806C89.5185 6.2744 88.0291 10.3463 87.4875 11.0014C87.4294 9.56691 84.8859 15.6493 86.7428 9.35795L86.8685 9.49349C88.2709 3.28121 86.8878 4.84558 86.2108 4.59709L83.7446 12.8199C85.2824 0.649465 77.4679 16.7223 79.5473 5.89037C78.4834 7.90654 77.9225 7.82182 76.8683 9.83234L78.1836 5.42163C77.2455 4.16787 76.7812 3.55229 74.905 4.45025L76.1623 1.32717C75.3692 0.954432 71.2589 13.9324 70.3594 14.1132L72.0809 7.50556C70.5045 7.46038 70.6786 1.50789 67.3419 7.31919C67.6611 6.35912 68.2801 4.46155 68.6186 4.2187C67.9416 3.97021 67.1679 -0.530868 64.663 8.52777C66.4425 2.64869 63.2413 7.78794 61.5971 10.2898L63.0672 5.96379C60.6493 11.4362 60.1658 12.9441 58.6957 14.373C58.6377 13.7856 59.5661 10.8828 59.5275 12.0236C59.4501 9.66857 57.6415 16.0672 57.4094 13.6557L58.6183 10.9223C57.9123 10.5044 57.5158 11.9953 56.0748 15.1806C55.0206 16.8692 54.8852 13.9268 55.9877 9.99612C55.1366 12.3737 53.6956 15.5194 53.5699 14.3447C53.9664 12.8594 54.4306 11.9558 54.6627 11.5153C54.2469 8.42046 51.0747 16.3383 51.4809 11.9784C51.9161 10.5383 52.0805 9.8154 52.1385 9.3749C53.1733 9.6008 53.9664 9.92835 53.7826 10.2333C55.0399 6.23487 54.3919 5.44422 56.8195 0C55.185 2.93671 51.9354 9.3523 51.684 7.38132C51.7613 6.99164 51.8484 6.60761 52.0128 5.98638L52.2449 5.54587C52.1772 5.12795 51.8871 5.4781 51.5099 6.13321C51.4518 5.44986 51.4325 4.94159 51.1907 4.85687C52.1385 1.54177 50.7652 2.96495 50.388 2.75599C49.034 7.13283 48.6955 6.37041 48.0765 10.0357C48.1055 9.71375 48.328 9.52173 48.6665 9.36925C48.7729 9.245 48.8696 9.18853 48.9953 8.93439C48.9469 9.04734 48.8986 9.17723 48.8406 9.31277C49.1597 9.21676 49.5659 9.16029 50.0011 9.1377C48.9566 11.3233 48.0088 13.1474 48.299 10.6738C47.2254 13.3169 46.0745 16.1463 45.4556 17.6598C46.7999 11.4984 46.7129 8.08161 47.7477 4.30906C45.649 6.6189 44.1403 5.59105 40.6682 13.7065C39.9525 14.7231 40.9971 11.3063 41.2679 10.0018C41.7514 9.19982 41.9642 9.35795 42.4574 8.18891C41.0357 10.2107 39.9719 8.76496 37.9506 14.4803C37.8345 11.792 40.1847 9.26194 38.5792 10.0582L39.3239 8.32445C39.7398 -1.11821 30.4165 22.4941 31.3934 10.4197C31.3547 11.1652 31.345 11.5097 31.0742 12.4697C29.5268 6.92387 22.8052 16.5924 22.3022 8.01384C21.9347 6.25181 20.6388 9.90011 19.1687 12.6222L20.513 7.91218L17.7857 13.2152C15.1357 17.0273 19.2461 1.44577 15.0777 8.74237L14.2556 11.9276C13.8398 11.2668 11.7024 13.571 12.9984 9.95094C12.7469 10.5213 11.7121 13.2152 12.0215 11.5379L12.8146 9.08122L9.92285 13.1192C9.34257 11.216 13.3175 3.39981 11.7798 2.7334C10.832 3.60877 7.62106 9.67421 7.31158 11.3402C7.52435 11.4927 7.45665 12.9441 6.66359 15.4008L5.65777 16.615C3.1432 23.8777 0.241785 31.2308 0 36.4378L2.45654 32.1288L1.61512 35.6698L0.706012 35.794C0.0870426 39.1487 1.354 36.2628 2.35015 34.2974C1.81822 36.1724 1.51841 37.4939 1.4894 38.2055L4.73899 31.4115C3.92659 34.2523 2.44686 36.9744 2.59193 38.6065C4.11034 35.4495 4.24574 32.2135 5.69645 30.1973C5.08716 33.535 4.06199 36.195 5.55138 33.4503C5.01946 35.3196 4.50687 36.4943 4.01363 37.285C5.2419 35.1107 5.63843 36.4887 7.15683 32.6766C6.31542 36.788 9.17816 31.8125 6.87636 38.646C7.57271 37.0252 9.51666 33.3712 10.0679 33.1397C6.53787 41.2382 11.6153 33.8117 8.50116 42.5711C11.538 35.2745 11.7991 39.5496 14.2363 35.5851C13.9848 36.1611 13.4723 37.3358 13.5013 36.9461C13.9171 37.6295 13.3562 39.8715 13.2982 41.306C15.3775 35.2293 16.7895 33.9473 18.5401 30.2482C17.3698 36.2063 15.7354 37.3471 14.1299 43.0059C15.7064 38.07 17.0603 38.2281 18.1435 34.0941C17.5342 37.7933 18.0662 35.9126 16.7122 40.9954C19.3041 33.3938 17.6696 39.7642 19.6813 35.1446C19.2944 38.9905 17.5633 42.3 19.2461 40.0861C18.9269 42.4638 17.2248 45.0673 17.2248 45.0673L17.2344 45.0786ZM43.3859 34.32C43.3762 34.3596 43.3666 34.3878 43.3569 34.4047C43.1344 34.4838 42.9507 34.5516 42.825 34.6024C42.941 34.5516 43.0958 34.4782 43.3859 34.3144V34.32ZM45.2428 34.4499C45.0687 34.2523 44.8076 34.1958 44.4981 34.1901C44.9043 32.6766 45.4652 31.1292 45.6297 31.2252C45.2138 32.2248 45.3685 33.1397 45.2428 34.4443V34.4499ZM50.9489 3.73866C51.4325 3.15132 51.2584 4.02104 51.007 4.919C50.8522 4.98112 50.6394 5.11101 50.3396 5.38774C50.2816 5.53458 50.1946 5.76048 50.1365 5.91861C50.4267 5.08842 50.7071 4.30906 50.9489 3.73866Z" fill="#3747CC"/>
</svg>
